# PH2D Sculpt
o cylinder_32_0
v 0 0.8 0
v 0 -0.8 0
v 0.7 0.8 0
v 0.68654966 0.8 0.13656323
v 0.64671564 0.8 0.2678784
v 0.5820287 0.8 0.38889918
v 0.49497473 0.8 0.49497473
v 0.38889912 0.8 0.58202875
v 0.26787838 0.8 0.64671564
v 0.13656317 0.8 0.6865497
v -0.00000003059797 0.8 0.7
v -0.13656323 0.8 0.68654966
v -0.26787844 0.8 0.64671564
v -0.38889924 0.8 0.5820287
v -0.49497473 0.8 0.49497473
v -0.58202875 0.8 0.38889912
v -0.6467157 0.8 0.2678783
v -0.6865497 0.8 0.13656321
v -0.7 0.8 -0.00000006119594
v -0.68654966 0.8 -0.13656335
v -0.64671564 0.8 -0.26787838
v -0.5820287 0.8 -0.3888992
v -0.49497464 0.8 -0.49497482
v -0.388899 0.8 -0.5820288
v -0.26787817 0.8 -0.64671576
v -0.13656327 0.8 -0.68654966
v 0.000000008347416 0.8 -0.7
v 0.13656329 0.8 -0.68654966
v 0.26787853 0.8 -0.6467156
v 0.3888993 0.8 -0.5820286
v 0.4949749 0.8 -0.49497455
v 0.5820287 0.8 -0.3888992
v 0.6467157 0.8 -0.26787838
v 0.6865497 0.8 -0.13656317
v 0.7 -0.8 0
v 0.68654966 -0.8 0.13656323
v 0.64671564 -0.8 0.2678784
v 0.5820287 -0.8 0.38889918
v 0.49497473 -0.8 0.49497473
v 0.38889912 -0.8 0.58202875
v 0.26787838 -0.8 0.64671564
v 0.13656317 -0.8 0.6865497
v -0.00000003059797 -0.8 0.7
v -0.13656323 -0.8 0.68654966
v -0.26787844 -0.8 0.64671564
v -0.38889924 -0.8 0.5820287
v -0.49497473 -0.8 0.49497473
v -0.58202875 -0.8 0.38889912
v -0.6467157 -0.8 0.2678783
v -0.6865497 -0.8 0.13656321
v -0.7 -0.8 -0.00000006119594
v -0.68654966 -0.8 -0.13656335
v -0.64671564 -0.8 -0.26787838
v -0.5820287 -0.8 -0.3888992
v -0.49497464 -0.8 -0.49497482
v -0.388899 -0.8 -0.5820288
v -0.26787817 -0.8 -0.64671576
v -0.13656327 -0.8 -0.68654966
v 0.000000008347416 -0.8 -0.7
v 0.13656329 -0.8 -0.68654966
v 0.26787853 -0.8 -0.6467156
v 0.3888993 -0.8 -0.5820286
v 0.4949749 -0.8 -0.49497455
v 0.5820287 -0.8 -0.3888992
v 0.6467157 -0.8 -0.26787838
v 0.6865497 -0.8 -0.13656317
f 1 4 3
f 2 35 36
f 3 4 36 35
f 1 5 4
f 2 36 37
f 4 5 37 36
f 1 6 5
f 2 37 38
f 5 6 38 37
f 1 7 6
f 2 38 39
f 6 7 39 38
f 1 8 7
f 2 39 40
f 7 8 40 39
f 1 9 8
f 2 40 41
f 8 9 41 40
f 1 10 9
f 2 41 42
f 9 10 42 41
f 1 11 10
f 2 42 43
f 10 11 43 42
f 1 12 11
f 2 43 44
f 11 12 44 43
f 1 13 12
f 2 44 45
f 12 13 45 44
f 1 14 13
f 2 45 46
f 13 14 46 45
f 1 15 14
f 2 46 47
f 14 15 47 46
f 1 16 15
f 2 47 48
f 15 16 48 47
f 1 17 16
f 2 48 49
f 16 17 49 48
f 1 18 17
f 2 49 50
f 17 18 50 49
f 1 19 18
f 2 50 51
f 18 19 51 50
f 1 20 19
f 2 51 52
f 19 20 52 51
f 1 21 20
f 2 52 53
f 20 21 53 52
f 1 22 21
f 2 53 54
f 21 22 54 53
f 1 23 22
f 2 54 55
f 22 23 55 54
f 1 24 23
f 2 55 56
f 23 24 56 55
f 1 25 24
f 2 56 57
f 24 25 57 56
f 1 26 25
f 2 57 58
f 25 26 58 57
f 1 27 26
f 2 58 59
f 26 27 59 58
f 1 28 27
f 2 59 60
f 27 28 60 59
f 1 29 28
f 2 60 61
f 28 29 61 60
f 1 30 29
f 2 61 62
f 29 30 62 61
f 1 31 30
f 2 62 63
f 30 31 63 62
f 1 32 31
f 2 63 64
f 31 32 64 63
f 1 33 32
f 2 64 65
f 32 33 65 64
f 1 34 33
f 2 65 66
f 33 34 66 65
f 1 3 34
f 2 66 35
f 34 3 35 66
