# PH2D Sculpt
o open_disc_0
v 0 0 0
v 0.5 0 0
v 0.24999999 0.43301272 0
v -0.25000003 0.4330127 0
v -0.5 -0.00000004371139 0
v -0.24999996 -0.43301272 0
v 0.24999996 -0.43301272 0
v 0.98768836 0.15643448 0
v 0.8660254 0.5 0
v 0.35836798 0.9335804 0
v -0.00000004371139 1 0
v -0.6293205 0.77714586 0
v -0.8660254 0.50000006 0
v -0.9876883 -0.15643461 0
v -0.86602527 -0.5000002 0
v -0.35836777 -0.9335805 0
v 0.000000011924881 -1 0
v 0.62932074 -0.7771457 0
v 0.86602557 -0.49999976 0
f 1 2 3
f 1 3 4
f 1 4 5
f 1 5 6
f 1 6 7
f 1 7 2
f 2 8 9
f 2 9 10
f 2 10 3
f 3 10 11
f 3 11 12
f 3 12 4
f 4 12 13
f 4 13 14
f 4 14 5
f 5 14 15
f 5 15 16
f 5 16 6
f 6 16 17
f 6 17 18
f 6 18 7
f 7 18 19
f 7 19 8
f 7 8 2
