# PH2D Sculpt
o open_tube3_0
v 1 -1 0
v 0.49999997 -1 0.86602545
v -0.50000006 -1 0.8660254
v -1 -1 -0.00000008742278
v -0.4999999 -1 -0.86602545
v 0.50000036 -1 -0.8660252
v 1 0 0
v 0.49999997 0 0.86602545
v -0.50000006 0 0.8660254
v -1 0 -0.00000008742278
v -0.4999999 0 -0.86602545
v 0.50000036 0 -0.8660252
v 1 1 0
v 0.49999997 1 0.86602545
v -0.50000006 1 0.8660254
v -1 1 -0.00000008742278
v -0.4999999 1 -0.86602545
v 0.50000036 1 -0.8660252
f 1 7 8 2
f 2 8 9 3
f 3 9 10 4
f 4 10 11 5
f 5 11 12 6
f 6 12 7 1
f 7 13 14 8
f 8 14 15 9
f 9 15 16 10
f 10 16 17 11
f 11 17 18 12
f 12 18 13 7
