# PH2D Sculpt
o torus_32x16_0
v 1.35 0 0
v 1.3233578 0.1339392 0
v 1.2474873 0.24748737 0
v 1.1339391 0.32335782 0
v 1 0.35 0
v 0.8660608 0.32335782 0
v 0.75251263 0.24748737 0
v 0.6766422 0.13393915 0
v 0.65 -0.00000003059797 0
v 0.6766422 -0.13393919 0
v 0.7525127 -0.24748741 0
v 0.8660609 -0.32335788 0
v 1 -0.35 0
v 1.1339393 -0.3233578 0
v 1.2474874 -0.24748728 0
v 1.3233578 -0.13393919 0
v 1.3240601 0 0.26337194
v 1.2979299 0.1339392 0.2581743
v 1.2235172 0.24748737 0.24337271
v 1.1121508 0.32335782 0.22122055
v 0.98078525 0.35 0.19509032
v 0.84941965 0.32335782 0.16896008
v 0.7380533 0.24748737 0.14680794
v 0.6636407 0.13393915 0.13200635
v 0.6375104 -0.00000003059797 0.1268087
v 0.6636407 -0.13393919 0.13200635
v 0.7380533 -0.24748741 0.14680794
v 0.8494198 -0.32335788 0.16896011
v 0.98078525 -0.35 0.19509032
v 1.1121509 -0.3233578 0.22122058
v 1.2235173 -0.24748728 0.24337272
v 1.2979299 -0.13393919 0.2581743
v 1.2472373 0 0.51662266
v 1.2226231 0.1339392 0.50642717
v 1.1525279 0.24748737 0.47739276
v 1.0476232 0.32335782 0.43393975
v 0.9238795 0.35 0.38268346
v 0.8001358 0.32335782 0.33142713
v 0.695231 0.24748737 0.28797415
v 0.62513584 0.13393915 0.25893977
v 0.6005217 -0.00000003059797 0.24874423
v 0.62513584 -0.13393919 0.25893977
v 0.6952311 -0.24748741 0.28797415
v 0.8001359 -0.32335788 0.3314272
v 0.9238795 -0.35 0.38268346
v 1.0476233 -0.3233578 0.43393978
v 1.152528 -0.24748728 0.4773928
v 1.2226231 -0.13393919 0.50642717
v 1.122484 0 0.75001985
v 1.1003318 0.1339392 0.7352182
v 1.0372478 0.24748737 0.69306684
v 0.9428359 0.32335782 0.6299828
v 0.8314696 0.35 0.55557024
v 0.7201032 0.32335782 0.4811576
v 0.62569135 0.24748737 0.41807362
v 0.5626074 0.13393915 0.37592226
v 0.5404552 -0.00000003059797 0.36112064
v 0.5626074 -0.13393919 0.37592226
v 0.6256914 -0.24748741 0.41807365
v 0.7201033 -0.32335788 0.48115766
v 0.8314696 -0.35 0.55557024
v 0.94283605 -0.3233578 0.6299829
v 1.0372479 -0.24748728 0.6930669
v 1.1003318 -0.13393919 0.7352182
v 0.95459414 0 0.95459414
v 0.93575525 0.1339392 0.93575525
v 0.8821067 0.24748737 0.8821067
v 0.80181605 0.32335782 0.80181605
v 0.70710677 0.35 0.70710677
v 0.61239743 0.32335782 0.61239743
v 0.53210676 0.24748737 0.53210676
v 0.47845826 0.13393915 0.47845826
v 0.45961937 -0.00000003059797 0.45961937
v 0.47845826 -0.13393919 0.47845826
v 0.5321068 -0.24748741 0.5321068
v 0.61239755 -0.32335788 0.61239755
v 0.70710677 -0.35 0.70710677
v 0.8018161 -0.3233578 0.8018161
v 0.8821068 -0.24748728 0.8821068
v 0.93575525 -0.13393919 0.93575525
v 0.7500198 0 1.1224841
v 0.73521817 0.1339392 1.1003319
v 0.6930668 0.24748737 1.0372479
v 0.62998277 0.32335782 0.942836
v 0.5555702 0.35 0.83146966
v 0.48115754 0.32335782 0.72010326
v 0.4180736 0.24748737 0.6256914
v 0.37592223 0.13393915 0.56260747
v 0.3611206 -0.00000003059797 0.5404553
v 0.37592223 -0.13393919 0.56260747
v 0.41807362 -0.24748741 0.6256915
v 0.48115763 -0.32335788 0.7201034
v 0.5555702 -0.35 0.83146966
v 0.6299828 -0.3233578 0.9428361
v 0.69306684 -0.24748728 1.0372479
v 0.73521817 -0.13393919 1.1003319
v 0.51662266 0 1.2472373
v 0.5064271 0.1339392 1.2226231
v 0.4773927 0.24748737 1.1525279
v 0.43393973 0.32335782 1.0476232
v 0.38268343 0.35 0.9238795
v 0.3314271 0.32335782 0.8001358
v 0.28797412 0.24748737 0.695231
v 0.25893974 0.13393915 0.62513584
v 0.24874422 -0.00000003059797 0.6005217
v 0.25893974 -0.13393919 0.62513584
v 0.28797415 -0.24748741 0.6952311
v 0.33142716 -0.32335788 0.8001359
v 0.38268343 -0.35 0.9238795
v 0.43393975 -0.3233578 1.0476233
v 0.47739276 -0.24748728 1.152528
v 0.5064271 -0.13393919 1.2226231
v 0.26337183 0 1.3240602
v 0.25817418 0.1339392 1.2979299
v 0.24337259 0.24748737 1.2235172
v 0.22122045 0.32335782 1.1121509
v 0.19509023 0.35 0.9807853
v 0.16896 0.32335782 0.8494197
v 0.14680786 0.24748737 0.7380533
v 0.13200629 0.13393915 0.66364074
v 0.12680864 -0.00000003059797 0.6375104
v 0.13200629 -0.13393919 0.66364074
v 0.14680788 -0.24748741 0.7380534
v 0.16896002 -0.32335788 0.84941983
v 0.19509023 -0.35 0.9807853
v 0.22122048 -0.3233578 1.112151
v 0.24337262 -0.24748728 1.2235173
v 0.25817418 -0.13393919 1.2979299
v -0.000000059010375 0 1.35
v -0.000000057845806 0.1339392 1.3233578
v -0.0000000545294 0.24748737 1.2474873
v -0.000000049566054 0.32335782 1.1339391
v -0.00000004371139 0.35 1
v -0.00000003785672 0.32335782 0.8660608
v -0.00000003289337 0.24748737 0.75251263
v -0.000000029576968 0.13393915 0.6766422
v -0.000000028412401 -0.00000003059797 0.65
v -0.000000029576968 -0.13393919 0.6766422
v -0.000000032893375 -0.24748741 0.7525127
v -0.000000037856726 -0.32335788 0.8660609
v -0.00000004371139 -0.35 1
v -0.000000049566058 -0.3233578 1.1339393
v -0.00000005452941 -0.24748728 1.2474874
v -0.000000057845806 -0.13393919 1.3233578
v -0.26337194 0 1.3240601
v -0.2581743 0.1339392 1.2979299
v -0.24337271 0.24748737 1.2235172
v -0.22122055 0.32335782 1.1121508
v -0.19509032 0.35 0.98078525
v -0.16896008 0.32335782 0.84941965
v -0.14680794 0.24748737 0.7380533
v -0.13200635 0.13393915 0.6636407
v -0.1268087 -0.00000003059797 0.6375104
v -0.13200635 -0.13393919 0.6636407
v -0.14680794 -0.24748741 0.7380533
v -0.16896011 -0.32335788 0.8494198
v -0.19509032 -0.35 0.98078525
v -0.22122058 -0.3233578 1.1121509
v -0.24337272 -0.24748728 1.2235173
v -0.2581743 -0.13393919 1.2979299
v -0.5166228 0 1.2472373
v -0.5064272 0.1339392 1.2226231
v -0.47739282 0.24748737 1.1525279
v -0.4339398 0.32335782 1.0476232
v -0.38268352 0.35 0.9238795
v -0.3314272 0.32335782 0.8001358
v -0.28797418 0.24748737 0.695231
v -0.2589398 0.13393915 0.62513584
v -0.24874428 -0.00000003059797 0.6005217
v -0.2589398 -0.13393919 0.62513584
v -0.2879742 -0.24748741 0.6952311
v -0.33142725 -0.32335788 0.8001359
v -0.38268352 -0.35 0.9238795
v -0.43393987 -0.3233578 1.0476233
v -0.47739288 -0.24748728 1.152528
v -0.5064272 -0.13393919 1.2226231
v -0.75002 0 1.1224838
v -0.7352184 0.1339392 1.1003317
v -0.69306695 0.24748737 1.0372477
v -0.629983 0.32335782 0.94283587
v -0.55557036 0.35 0.83146954
v -0.48115772 0.32335782 0.72010314
v -0.4180737 0.24748737 0.62569135
v -0.37592235 0.13393915 0.56260735
v -0.36112073 -0.00000003059797 0.54045516
v -0.37592235 -0.13393919 0.56260735
v -0.41807374 -0.24748741 0.62569135
v -0.48115778 -0.32335788 0.72010326
v -0.55557036 -0.35 0.83146954
v -0.62998307 -0.3233578 0.9428359
v -0.693067 -0.24748728 1.0372478
v -0.7352184 -0.13393919 1.1003317
v -0.95459414 0 0.95459414
v -0.93575525 0.1339392 0.93575525
v -0.8821067 0.24748737 0.8821067
v -0.80181605 0.32335782 0.80181605
v -0.70710677 0.35 0.70710677
v -0.61239743 0.32335782 0.61239743
v -0.53210676 0.24748737 0.53210676
v -0.47845826 0.13393915 0.47845826
v -0.45961937 -0.00000003059797 0.45961937
v -0.47845826 -0.13393919 0.47845826
v -0.5321068 -0.24748741 0.5321068
v -0.61239755 -0.32335788 0.61239755
v -0.70710677 -0.35 0.70710677
v -0.8018161 -0.3233578 0.8018161
v -0.8821068 -0.24748728 0.8821068
v -0.93575525 -0.13393919 0.93575525
v -1.1224841 0 0.7500198
v -1.1003319 0.1339392 0.73521817
v -1.0372479 0.24748737 0.6930668
v -0.942836 0.32335782 0.62998277
v -0.83146966 0.35 0.5555702
v -0.72010326 0.32335782 0.48115754
v -0.6256914 0.24748737 0.4180736
v -0.56260747 0.13393915 0.37592223
v -0.5404553 -0.00000003059797 0.3611206
v -0.56260747 -0.13393919 0.37592223
v -0.6256915 -0.24748741 0.41807362
v -0.7201034 -0.32335788 0.48115763
v -0.83146966 -0.35 0.5555702
v -0.9428361 -0.3233578 0.6299828
v -1.0372479 -0.24748728 0.69306684
v -1.1003319 -0.13393919 0.73521817
v -1.2472376 0 0.5166224
v -1.2226233 0.1339392 0.50642693
v -1.152528 0.24748737 0.47739252
v -1.0476233 0.32335782 0.43393955
v -0.9238796 0.35 0.38268328
v -0.8001359 0.32335782 0.33142698
v -0.6952311 0.24748737 0.287974
v -0.6251359 0.13393915 0.25893965
v -0.60052174 -0.00000003059797 0.24874412
v -0.6251359 -0.13393919 0.25893965
v -0.69523114 -0.24748741 0.28797403
v -0.800136 -0.32335788 0.33142704
v -0.9238796 -0.35 0.38268328
v -1.0476234 -0.3233578 0.4339396
v -1.1525282 -0.24748728 0.47739258
v -1.2226233 -0.13393919 0.50642693
v -1.3240602 0 0.2633719
v -1.2979299 0.1339392 0.2581743
v -1.2235172 0.24748737 0.24337268
v -1.1121509 0.32335782 0.22122054
v -0.9807853 0.35 0.19509031
v -0.8494197 0.32335782 0.16896006
v -0.7380533 0.24748737 0.14680792
v -0.66364074 0.13393915 0.13200633
v -0.6375104 -0.00000003059797 0.1268087
v -0.66364074 -0.13393919 0.13200633
v -0.7380534 -0.24748741 0.14680794
v -0.84941983 -0.32335788 0.1689601
v -0.9807853 -0.35 0.19509031
v -1.112151 -0.3233578 0.22122057
v -1.2235173 -0.24748728 0.24337271
v -1.2979299 -0.13393919 0.2581743
v -1.35 0 -0.00000011802075
v -1.3233578 0.1339392 -0.00000011569161
v -1.2474873 0.24748737 -0.0000001090588
v -1.1339391 0.32335782 -0.00000009913211
v -1 0.35 -0.00000008742278
v -0.8660608 0.32335782 -0.00000007571344
v -0.75251263 0.24748737 -0.00000006578674
v -0.6766422 0.13393915 -0.000000059153937
v -0.65 -0.00000003059797 -0.000000056824803
v -0.6766422 -0.13393919 -0.000000059153937
v -0.7525127 -0.24748741 -0.00000006578675
v -0.8660609 -0.32335788 -0.00000007571345
v -1 -0.35 -0.00000008742278
v -1.1339393 -0.3233578 -0.000000099132116
v -1.2474874 -0.24748728 -0.00000010905882
v -1.3233578 -0.13393919 -0.00000011569161
v -1.3240601 0 -0.26337215
v -1.2979299 0.1339392 -0.2581745
v -1.2235172 0.24748737 -0.2433729
v -1.1121508 0.32335782 -0.22122075
v -0.98078525 0.35 -0.19509049
v -0.84941965 0.32335782 -0.16896023
v -0.7380533 0.24748737 -0.14680806
v -0.6636407 0.13393915 -0.13200645
v -0.6375104 -0.00000003059797 -0.1268088
v -0.6636407 -0.13393919 -0.13200645
v -0.7380533 -0.24748741 -0.14680807
v -0.8494198 -0.32335788 -0.16896024
v -0.98078525 -0.35 -0.19509049
v -1.1121509 -0.3233578 -0.22122076
v -1.2235173 -0.24748728 -0.24337293
v -1.2979299 -0.13393919 -0.2581745
v -1.2472373 0 -0.51662266
v -1.2226231 0.1339392 -0.5064271
v -1.1525279 0.24748737 -0.4773927
v -1.0476232 0.32335782 -0.43393973
v -0.9238795 0.35 -0.38268343
v -0.8001358 0.32335782 -0.3314271
v -0.695231 0.24748737 -0.28797412
v -0.62513584 0.13393915 -0.25893974
v -0.6005217 -0.00000003059797 -0.24874422
v -0.62513584 -0.13393919 -0.25893974
v -0.6952311 -0.24748741 -0.28797415
v -0.8001359 -0.32335788 -0.33142716
v -0.9238795 -0.35 -0.38268343
v -1.0476233 -0.3233578 -0.43393975
v -1.152528 -0.24748728 -0.47739276
v -1.2226231 -0.13393919 -0.5064271
v -1.1224838 0 -0.7500199
v -1.1003317 0.1339392 -0.7352183
v -1.0372477 0.24748737 -0.6930669
v -0.94283587 0.32335782 -0.6299829
v -0.83146954 0.35 -0.5555703
v -0.72010314 0.32335782 -0.48115766
v -0.62569135 0.24748737 -0.41807368
v -0.56260735 0.13393915 -0.3759223
v -0.54045516 -0.00000003059797 -0.36112067
v -0.56260735 -0.13393919 -0.3759223
v -0.62569135 -0.24748741 -0.4180737
v -0.72010326 -0.32335788 -0.48115772
v -0.83146954 -0.35 -0.5555703
v -0.9428359 -0.3233578 -0.629983
v -1.0372478 -0.24748728 -0.69306695
v -1.1003317 -0.13393919 -0.7352183
v -0.954594 0 -0.9545943
v -0.93575513 0.1339392 -0.93575543
v -0.88210654 0.24748737 -0.88210684
v -0.8018159 0.32335782 -0.80181617
v -0.70710665 0.35 -0.7071069
v -0.6123974 0.32335782 -0.61239755
v -0.5321067 0.24748737 -0.5321069
v -0.4784582 0.13393915 -0.47845834
v -0.4596193 -0.00000003059797 -0.45961946
v -0.4784582 -0.13393919 -0.47845834
v -0.53210676 -0.24748741 -0.53210694
v -0.61239743 -0.32335788 -0.6123976
v -0.70710665 -0.35 -0.7071069
v -0.801816 -0.3233578 -0.8018163
v -0.88210666 -0.24748728 -0.88210696
v -0.93575513 -0.13393919 -0.93575543
v -0.75001955 0 -1.1224842
v -0.7352179 0.1339392 -1.100332
v -0.69306654 0.24748737 -1.037248
v -0.6299826 0.32335782 -0.9428361
v -0.55557 0.35 -0.8314698
v -0.4811574 0.32335782 -0.7201034
v -0.41807345 0.24748737 -0.62569153
v -0.3759221 0.13393915 -0.5626075
v -0.3611205 -0.00000003059797 -0.54045534
v -0.3759221 -0.13393919 -0.5626075
v -0.41807348 -0.24748741 -0.62569153
v -0.48115745 -0.32335788 -0.72010344
v -0.55557 -0.35 -0.8314698
v -0.62998265 -0.3233578 -0.9428362
v -0.6930666 -0.24748728 -1.0372481
v -0.7352179 -0.13393919 -1.100332
v -0.51662225 0 -1.2472376
v -0.5064267 0.1339392 -1.2226233
v -0.47739235 0.24748737 -1.1525282
v -0.43393937 0.32335782 -1.0476234
v -0.38268313 0.35 -0.9238797
v -0.33142686 0.32335782 -0.80013597
v -0.28797388 0.24748737 -0.69523114
v -0.25893953 0.13393915 -0.62513596
v -0.24874403 -0.00000003059797 -0.60052174
v -0.25893953 -0.13393919 -0.62513596
v -0.2879739 -0.24748741 -0.6952312
v -0.3314269 -0.32335788 -0.8001361
v -0.38268313 -0.35 -0.9238797
v -0.43393943 -0.3233578 -1.0476234
v -0.4773924 -0.24748728 -1.1525283
v -0.5064267 -0.13393919 -1.2226233
v -0.26337203 0 -1.3240601
v -0.2581744 0.1339392 -1.2979299
v -0.24337278 0.24748737 -1.2235172
v -0.22122063 0.32335782 -1.1121508
v -0.19509038 0.35 -0.98078525
v -0.16896014 0.32335782 -0.84941965
v -0.14680798 0.24748737 -0.7380533
v -0.13200638 0.13393915 -0.6636407
v -0.12680875 -0.00000003059797 -0.6375104
v -0.13200638 -0.13393919 -0.6636407
v -0.14680798 -0.24748741 -0.7380533
v -0.16896015 -0.32335788 -0.8494198
v -0.19509038 -0.35 -0.98078525
v -0.22122064 -0.3233578 -1.1121509
v -0.2433728 -0.24748728 -1.2235173
v -0.2581744 -0.13393919 -1.2979299
v 0.00000001609859 0 -1.35
v 0.000000015780884 0.1339392 -1.3233578
v 0.000000014876138 0.24748737 -1.2474873
v 0.000000013522089 0.32335782 -1.1339391
v 0.000000011924881 0.35 -1
v 0.000000010327671 0.32335782 -0.8660608
v 0.000000008973624 0.24748737 -0.75251263
v 0.000000008068877 0.13393915 -0.6766422
v 0.000000007751172 -0.00000003059797 -0.65
v 0.000000008068877 -0.13393919 -0.6766422
v 0.000000008973624 -0.24748741 -0.7525127
v 0.000000010327673 -0.32335788 -0.8660609
v 0.000000011924881 -0.35 -1
v 0.00000001352209 -0.3233578 -1.1339393
v 0.0000000148761385 -0.24748728 -1.2474874
v 0.000000015780884 -0.13393919 -1.3233578
v 0.26337206 0 -1.3240601
v 0.25817442 0.1339392 -1.2979299
v 0.24337281 0.24748737 -1.2235172
v 0.22122066 0.32335782 -1.1121508
v 0.19509041 0.35 -0.98078525
v 0.16896015 0.32335782 -0.84941965
v 0.146808 0.24748737 -0.7380533
v 0.1320064 0.13393915 -0.6636407
v 0.12680876 -0.00000003059797 -0.6375104
v 0.1320064 -0.13393919 -0.6636407
v 0.14680801 -0.24748741 -0.7380533
v 0.16896018 -0.32335788 -0.8494198
v 0.19509041 -0.35 -0.98078525
v 0.22122069 -0.3233578 -1.1121509
v 0.24337284 -0.24748728 -1.2235173
v 0.25817442 -0.13393919 -1.2979299
v 0.5166229 0 -1.2472373
v 0.50642735 0.1339392 -1.2226231
v 0.47739294 0.24748737 -1.1525279
v 0.43393993 0.32335782 -1.047623
v 0.3826836 0.35 -0.92387944
v 0.33142728 0.32335782 -0.8001358
v 0.28797424 0.24748737 -0.69523096
v 0.25893986 0.13393915 -0.6251358
v 0.24874434 -0.00000003059797 -0.6005216
v 0.25893986 -0.13393919 -0.6251358
v 0.28797427 -0.24748741 -0.695231
v 0.3314273 -0.32335788 -0.80013585
v 0.3826836 -0.35 -0.92387944
v 0.43393996 -0.3233578 -1.0476232
v 0.47739297 -0.24748728 -1.152528
v 0.50642735 -0.13393919 -1.2226231
v 0.7500201 0 -1.1224838
v 0.73521847 0.1339392 -1.1003317
v 0.6930671 0.24748737 -1.0372477
v 0.62998307 0.32335782 -0.9428358
v 0.5555704 0.35 -0.8314695
v 0.48115775 0.32335782 -0.7201031
v 0.41807377 0.24748737 -0.6256913
v 0.37592238 0.13393915 -0.56260735
v 0.36112076 -0.00000003059797 -0.54045516
v 0.37592238 -0.13393919 -0.56260735
v 0.4180738 -0.24748741 -0.62569135
v 0.48115784 -0.32335788 -0.7201032
v 0.5555704 -0.35 -0.8314695
v 0.6299831 -0.3233578 -0.94283587
v 0.69306713 -0.24748728 -1.0372477
v 0.73521847 -0.13393919 -1.1003317
v 0.9545945 0 -0.95459384
v 0.9357556 0.1339392 -0.93575495
v 0.882107 0.24748737 -0.8821064
v 0.80181634 0.32335782 -0.80181575
v 0.707107 0.35 -0.70710653
v 0.6123977 0.32335782 -0.61239725
v 0.53210694 0.24748737 -0.5321066
v 0.47845843 0.13393915 -0.4784581
v 0.45961955 -0.00000003059797 -0.45961922
v 0.47845843 -0.13393919 -0.4784581
v 0.532107 -0.24748741 -0.53210664
v 0.61239773 -0.32335788 -0.6123973
v 0.707107 -0.35 -0.70710653
v 0.8018164 -0.3233578 -0.80181587
v 0.8821071 -0.24748728 -0.8821065
v 0.9357556 -0.13393919 -0.93575495
v 1.122484 0 -0.7500199
v 1.1003318 0.1339392 -0.7352183
v 1.0372478 0.24748737 -0.6930669
v 0.9428359 0.32335782 -0.6299829
v 0.8314696 0.35 -0.5555703
v 0.7201032 0.32335782 -0.48115766
v 0.62569135 0.24748737 -0.41807368
v 0.5626074 0.13393915 -0.3759223
v 0.5404552 -0.00000003059797 -0.36112067
v 0.5626074 -0.13393919 -0.3759223
v 0.6256914 -0.24748741 -0.4180737
v 0.7201033 -0.32335788 -0.48115772
v 0.8314696 -0.35 -0.5555703
v 0.94283605 -0.3233578 -0.629983
v 1.0372479 -0.24748728 -0.69306695
v 1.1003318 -0.13393919 -0.7352183
v 1.2472374 0 -0.51662266
v 1.2226232 0.1339392 -0.5064271
v 1.152528 0.24748737 -0.4773927
v 1.0476232 0.32335782 -0.43393973
v 0.92387956 0.35 -0.38268343
v 0.80013585 0.32335782 -0.3314271
v 0.695231 0.24748737 -0.28797412
v 0.6251359 0.13393915 -0.25893974
v 0.6005217 -0.00000003059797 -0.24874422
v 0.6251359 -0.13393919 -0.25893974
v 0.6952311 -0.24748741 -0.28797415
v 0.80013597 -0.32335788 -0.33142716
v 0.92387956 -0.35 -0.38268343
v 1.0476233 -0.3233578 -0.43393975
v 1.1525282 -0.24748728 -0.47739276
v 1.2226232 -0.13393919 -0.5064271
v 1.3240602 0 -0.26337183
v 1.2979299 0.1339392 -0.25817418
v 1.2235172 0.24748737 -0.24337259
v 1.1121509 0.32335782 -0.22122045
v 0.9807853 0.35 -0.19509023
v 0.8494197 0.32335782 -0.16896
v 0.7380533 0.24748737 -0.14680786
v 0.66364074 0.13393915 -0.13200629
v 0.6375104 -0.00000003059797 -0.12680864
v 0.66364074 -0.13393919 -0.13200629
v 0.7380534 -0.24748741 -0.14680788
v 0.84941983 -0.32335788 -0.16896002
v 0.9807853 -0.35 -0.19509023
v 1.112151 -0.3233578 -0.22122048
v 1.2235173 -0.24748728 -0.24337262
v 1.2979299 -0.13393919 -0.25817418
f 1 2 18 17
f 2 3 19 18
f 3 4 20 19
f 4 5 21 20
f 5 6 22 21
f 6 7 23 22
f 7 8 24 23
f 8 9 25 24
f 9 10 26 25
f 10 11 27 26
f 11 12 28 27
f 12 13 29 28
f 13 14 30 29
f 14 15 31 30
f 15 16 32 31
f 16 1 17 32
f 17 18 34 33
f 18 19 35 34
f 19 20 36 35
f 20 21 37 36
f 21 22 38 37
f 22 23 39 38
f 23 24 40 39
f 24 25 41 40
f 25 26 42 41
f 26 27 43 42
f 27 28 44 43
f 28 29 45 44
f 29 30 46 45
f 30 31 47 46
f 31 32 48 47
f 32 17 33 48
f 33 34 50 49
f 34 35 51 50
f 35 36 52 51
f 36 37 53 52
f 37 38 54 53
f 38 39 55 54
f 39 40 56 55
f 40 41 57 56
f 41 42 58 57
f 42 43 59 58
f 43 44 60 59
f 44 45 61 60
f 45 46 62 61
f 46 47 63 62
f 47 48 64 63
f 48 33 49 64
f 49 50 66 65
f 50 51 67 66
f 51 52 68 67
f 52 53 69 68
f 53 54 70 69
f 54 55 71 70
f 55 56 72 71
f 56 57 73 72
f 57 58 74 73
f 58 59 75 74
f 59 60 76 75
f 60 61 77 76
f 61 62 78 77
f 62 63 79 78
f 63 64 80 79
f 64 49 65 80
f 65 66 82 81
f 66 67 83 82
f 67 68 84 83
f 68 69 85 84
f 69 70 86 85
f 70 71 87 86
f 71 72 88 87
f 72 73 89 88
f 73 74 90 89
f 74 75 91 90
f 75 76 92 91
f 76 77 93 92
f 77 78 94 93
f 78 79 95 94
f 79 80 96 95
f 80 65 81 96
f 81 82 98 97
f 82 83 99 98
f 83 84 100 99
f 84 85 101 100
f 85 86 102 101
f 86 87 103 102
f 87 88 104 103
f 88 89 105 104
f 89 90 106 105
f 90 91 107 106
f 91 92 108 107
f 92 93 109 108
f 93 94 110 109
f 94 95 111 110
f 95 96 112 111
f 96 81 97 112
f 97 98 114 113
f 98 99 115 114
f 99 100 116 115
f 100 101 117 116
f 101 102 118 117
f 102 103 119 118
f 103 104 120 119
f 104 105 121 120
f 105 106 122 121
f 106 107 123 122
f 107 108 124 123
f 108 109 125 124
f 109 110 126 125
f 110 111 127 126
f 111 112 128 127
f 112 97 113 128
f 113 114 130 129
f 114 115 131 130
f 115 116 132 131
f 116 117 133 132
f 117 118 134 133
f 118 119 135 134
f 119 120 136 135
f 120 121 137 136
f 121 122 138 137
f 122 123 139 138
f 123 124 140 139
f 124 125 141 140
f 125 126 142 141
f 126 127 143 142
f 127 128 144 143
f 128 113 129 144
f 129 130 146 145
f 130 131 147 146
f 131 132 148 147
f 132 133 149 148
f 133 134 150 149
f 134 135 151 150
f 135 136 152 151
f 136 137 153 152
f 137 138 154 153
f 138 139 155 154
f 139 140 156 155
f 140 141 157 156
f 141 142 158 157
f 142 143 159 158
f 143 144 160 159
f 144 129 145 160
f 145 146 162 161
f 146 147 163 162
f 147 148 164 163
f 148 149 165 164
f 149 150 166 165
f 150 151 167 166
f 151 152 168 167
f 152 153 169 168
f 153 154 170 169
f 154 155 171 170
f 155 156 172 171
f 156 157 173 172
f 157 158 174 173
f 158 159 175 174
f 159 160 176 175
f 160 145 161 176
f 161 162 178 177
f 162 163 179 178
f 163 164 180 179
f 164 165 181 180
f 165 166 182 181
f 166 167 183 182
f 167 168 184 183
f 168 169 185 184
f 169 170 186 185
f 170 171 187 186
f 171 172 188 187
f 172 173 189 188
f 173 174 190 189
f 174 175 191 190
f 175 176 192 191
f 176 161 177 192
f 177 178 194 193
f 178 179 195 194
f 179 180 196 195
f 180 181 197 196
f 181 182 198 197
f 182 183 199 198
f 183 184 200 199
f 184 185 201 200
f 185 186 202 201
f 186 187 203 202
f 187 188 204 203
f 188 189 205 204
f 189 190 206 205
f 190 191 207 206
f 191 192 208 207
f 192 177 193 208
f 193 194 210 209
f 194 195 211 210
f 195 196 212 211
f 196 197 213 212
f 197 198 214 213
f 198 199 215 214
f 199 200 216 215
f 200 201 217 216
f 201 202 218 217
f 202 203 219 218
f 203 204 220 219
f 204 205 221 220
f 205 206 222 221
f 206 207 223 222
f 207 208 224 223
f 208 193 209 224
f 209 210 226 225
f 210 211 227 226
f 211 212 228 227
f 212 213 229 228
f 213 214 230 229
f 214 215 231 230
f 215 216 232 231
f 216 217 233 232
f 217 218 234 233
f 218 219 235 234
f 219 220 236 235
f 220 221 237 236
f 221 222 238 237
f 222 223 239 238
f 223 224 240 239
f 224 209 225 240
f 225 226 242 241
f 226 227 243 242
f 227 228 244 243
f 228 229 245 244
f 229 230 246 245
f 230 231 247 246
f 231 232 248 247
f 232 233 249 248
f 233 234 250 249
f 234 235 251 250
f 235 236 252 251
f 236 237 253 252
f 237 238 254 253
f 238 239 255 254
f 239 240 256 255
f 240 225 241 256
f 241 242 258 257
f 242 243 259 258
f 243 244 260 259
f 244 245 261 260
f 245 246 262 261
f 246 247 263 262
f 247 248 264 263
f 248 249 265 264
f 249 250 266 265
f 250 251 267 266
f 251 252 268 267
f 252 253 269 268
f 253 254 270 269
f 254 255 271 270
f 255 256 272 271
f 256 241 257 272
f 257 258 274 273
f 258 259 275 274
f 259 260 276 275
f 260 261 277 276
f 261 262 278 277
f 262 263 279 278
f 263 264 280 279
f 264 265 281 280
f 265 266 282 281
f 266 267 283 282
f 267 268 284 283
f 268 269 285 284
f 269 270 286 285
f 270 271 287 286
f 271 272 288 287
f 272 257 273 288
f 273 274 290 289
f 274 275 291 290
f 275 276 292 291
f 276 277 293 292
f 277 278 294 293
f 278 279 295 294
f 279 280 296 295
f 280 281 297 296
f 281 282 298 297
f 282 283 299 298
f 283 284 300 299
f 284 285 301 300
f 285 286 302 301
f 286 287 303 302
f 287 288 304 303
f 288 273 289 304
f 289 290 306 305
f 290 291 307 306
f 291 292 308 307
f 292 293 309 308
f 293 294 310 309
f 294 295 311 310
f 295 296 312 311
f 296 297 313 312
f 297 298 314 313
f 298 299 315 314
f 299 300 316 315
f 300 301 317 316
f 301 302 318 317
f 302 303 319 318
f 303 304 320 319
f 304 289 305 320
f 305 306 322 321
f 306 307 323 322
f 307 308 324 323
f 308 309 325 324
f 309 310 326 325
f 310 311 327 326
f 311 312 328 327
f 312 313 329 328
f 313 314 330 329
f 314 315 331 330
f 315 316 332 331
f 316 317 333 332
f 317 318 334 333
f 318 319 335 334
f 319 320 336 335
f 320 305 321 336
f 321 322 338 337
f 322 323 339 338
f 323 324 340 339
f 324 325 341 340
f 325 326 342 341
f 326 327 343 342
f 327 328 344 343
f 328 329 345 344
f 329 330 346 345
f 330 331 347 346
f 331 332 348 347
f 332 333 349 348
f 333 334 350 349
f 334 335 351 350
f 335 336 352 351
f 336 321 337 352
f 337 338 354 353
f 338 339 355 354
f 339 340 356 355
f 340 341 357 356
f 341 342 358 357
f 342 343 359 358
f 343 344 360 359
f 344 345 361 360
f 345 346 362 361
f 346 347 363 362
f 347 348 364 363
f 348 349 365 364
f 349 350 366 365
f 350 351 367 366
f 351 352 368 367
f 352 337 353 368
f 353 354 370 369
f 354 355 371 370
f 355 356 372 371
f 356 357 373 372
f 357 358 374 373
f 358 359 375 374
f 359 360 376 375
f 360 361 377 376
f 361 362 378 377
f 362 363 379 378
f 363 364 380 379
f 364 365 381 380
f 365 366 382 381
f 366 367 383 382
f 367 368 384 383
f 368 353 369 384
f 369 370 386 385
f 370 371 387 386
f 371 372 388 387
f 372 373 389 388
f 373 374 390 389
f 374 375 391 390
f 375 376 392 391
f 376 377 393 392
f 377 378 394 393
f 378 379 395 394
f 379 380 396 395
f 380 381 397 396
f 381 382 398 397
f 382 383 399 398
f 383 384 400 399
f 384 369 385 400
f 385 386 402 401
f 386 387 403 402
f 387 388 404 403
f 388 389 405 404
f 389 390 406 405
f 390 391 407 406
f 391 392 408 407
f 392 393 409 408
f 393 394 410 409
f 394 395 411 410
f 395 396 412 411
f 396 397 413 412
f 397 398 414 413
f 398 399 415 414
f 399 400 416 415
f 400 385 401 416
f 401 402 418 417
f 402 403 419 418
f 403 404 420 419
f 404 405 421 420
f 405 406 422 421
f 406 407 423 422
f 407 408 424 423
f 408 409 425 424
f 409 410 426 425
f 410 411 427 426
f 411 412 428 427
f 412 413 429 428
f 413 414 430 429
f 414 415 431 430
f 415 416 432 431
f 416 401 417 432
f 417 418 434 433
f 418 419 435 434
f 419 420 436 435
f 420 421 437 436
f 421 422 438 437
f 422 423 439 438
f 423 424 440 439
f 424 425 441 440
f 425 426 442 441
f 426 427 443 442
f 427 428 444 443
f 428 429 445 444
f 429 430 446 445
f 430 431 447 446
f 431 432 448 447
f 432 417 433 448
f 433 434 450 449
f 434 435 451 450
f 435 436 452 451
f 436 437 453 452
f 437 438 454 453
f 438 439 455 454
f 439 440 456 455
f 440 441 457 456
f 441 442 458 457
f 442 443 459 458
f 443 444 460 459
f 444 445 461 460
f 445 446 462 461
f 446 447 463 462
f 447 448 464 463
f 448 433 449 464
f 449 450 466 465
f 450 451 467 466
f 451 452 468 467
f 452 453 469 468
f 453 454 470 469
f 454 455 471 470
f 455 456 472 471
f 456 457 473 472
f 457 458 474 473
f 458 459 475 474
f 459 460 476 475
f 460 461 477 476
f 461 462 478 477
f 462 463 479 478
f 463 464 480 479
f 464 449 465 480
f 465 466 482 481
f 466 467 483 482
f 467 468 484 483
f 468 469 485 484
f 469 470 486 485
f 470 471 487 486
f 471 472 488 487
f 472 473 489 488
f 473 474 490 489
f 474 475 491 490
f 475 476 492 491
f 476 477 493 492
f 477 478 494 493
f 478 479 495 494
f 479 480 496 495
f 480 465 481 496
f 481 482 498 497
f 482 483 499 498
f 483 484 500 499
f 484 485 501 500
f 485 486 502 501
f 486 487 503 502
f 487 488 504 503
f 488 489 505 504
f 489 490 506 505
f 490 491 507 506
f 491 492 508 507
f 492 493 509 508
f 493 494 510 509
f 494 495 511 510
f 495 496 512 511
f 496 481 497 512
f 497 498 2 1
f 498 499 3 2
f 499 500 4 3
f 500 501 5 4
f 501 502 6 5
f 502 503 7 6
f 503 504 8 7
f 504 505 9 8
f 505 506 10 9
f 506 507 11 10
f 507 508 12 11
f 508 509 13 12
f 509 510 14 13
f 510 511 15 14
f 511 512 16 15
f 512 497 1 16
