# PH2D Sculpt
o uv_sphere_16x32_0
v 0 1 0
v 0.19509032 0.98078525 0
v 0.19134171 0.98078525 0.038060233
v 0.18023995 0.98078525 0.07465784
v 0.16221167 0.98078525 0.10838638
v 0.13794969 0.98078525 0.13794969
v 0.10838637 0.98078525 0.16221169
v 0.074657835 0.98078525 0.18023995
v 0.038060218 0.98078525 0.19134173
v -0.000000008527669 0.98078525 0.19509032
v -0.038060233 0.98078525 0.19134171
v -0.07465785 0.98078525 0.18023995
v -0.108386405 0.98078525 0.16221166
v -0.13794969 0.98078525 0.13794969
v -0.16221169 0.98078525 0.10838637
v -0.18023998 0.98078525 0.074657805
v -0.19134173 0.98078525 0.038060233
v -0.19509032 0.98078525 -0.000000017055338
v -0.19134171 0.98078525 -0.038060267
v -0.18023995 0.98078525 -0.074657835
v -0.16221166 0.98078525 -0.10838639
v -0.13794966 0.98078525 -0.1379497
v -0.10838633 0.98078525 -0.1622117
v -0.074657775 0.98078525 -0.18023999
v -0.038060244 0.98078525 -0.19134171
v 0.0000000023264288 0.98078525 -0.19509032
v 0.03806025 0.98078525 -0.19134171
v 0.074657865 0.98078525 -0.18023995
v 0.10838641 0.98078525 -0.16221166
v 0.13794973 0.98078525 -0.13794965
v 0.16221167 0.98078525 -0.10838639
v 0.18023996 0.98078525 -0.074657835
v 0.19134173 0.98078525 -0.038060218
v 0.38268346 0.9238795 0
v 0.3753303 0.9238795 0.07465784
v 0.3535534 0.9238795 0.14644663
v 0.31818965 0.9238795 0.21260755
v 0.27059805 0.9238795 0.27059805
v 0.21260752 0.9238795 0.31818968
v 0.14644662 0.9238795 0.3535534
v 0.074657805 0.9238795 0.3753303
v -0.000000016727626 0.9238795 0.38268346
v -0.07465784 0.9238795 0.3753303
v -0.14644665 0.9238795 0.3535534
v -0.21260759 0.9238795 0.31818962
v -0.27059805 0.9238795 0.27059805
v -0.31818968 0.9238795 0.21260752
v -0.35355344 0.9238795 0.14644656
v -0.3753303 0.9238795 0.074657835
v -0.38268346 0.9238795 -0.00000003345525
v -0.3753303 0.9238795 -0.0746579
v -0.3535534 0.9238795 -0.14644662
v -0.31818962 0.9238795 -0.21260756
v -0.27059802 0.9238795 -0.2705981
v -0.21260744 0.9238795 -0.31818974
v -0.1464465 0.9238795 -0.35355347
v -0.074657865 0.9238795 -0.3753303
v 0.0000000045634545 0.9238795 -0.38268346
v 0.07465787 0.9238795 -0.3753303
v 0.14644669 0.9238795 -0.35355338
v 0.2126076 0.9238795 -0.31818962
v 0.27059814 0.9238795 -0.27059796
v 0.31818965 0.9238795 -0.21260756
v 0.3535534 0.9238795 -0.14644662
v 0.3753303 0.9238795 -0.074657805
v 0.55557024 0.8314696 0
v 0.5448951 0.8314696 0.10838638
v 0.51328 0.8314696 0.21260755
v 0.46193975 0.8314696 0.3086583
v 0.39284748 0.8314696 0.39284748
v 0.30865827 0.8314696 0.4619398
v 0.21260752 0.8314696 0.51328
v 0.10838633 0.8314696 0.5448951
v -0.000000024284747 0.8314696 0.55557024
v -0.10838638 0.8314696 0.5448951
v -0.21260758 0.8314696 0.51328
v -0.30865836 0.8314696 0.46193972
v -0.39284748 0.8314696 0.39284748
v -0.4619398 0.8314696 0.30865827
v -0.51328003 0.8314696 0.21260744
v -0.5448951 0.8314696 0.10838637
v -0.55557024 0.8314696 -0.000000048569493
v -0.5448951 0.8314696 -0.10838647
v -0.51328 0.8314696 -0.21260752
v -0.46193972 0.8314696 -0.30865833
v -0.39284742 0.8314696 -0.39284754
v -0.30865815 0.8314696 -0.46193987
v -0.21260735 0.8314696 -0.51328003
v -0.10838641 0.8314696 -0.5448951
v 0.000000006625109 0.8314696 -0.55557024
v 0.10838643 0.8314696 -0.5448951
v 0.21260762 0.8314696 -0.5132799
v 0.3086584 0.8314696 -0.4619397
v 0.39284763 0.8314696 -0.39284736
v 0.46193975 0.8314696 -0.30865833
v 0.51328 0.8314696 -0.21260752
v 0.5448951 0.8314696 -0.10838633
v 0.70710677 0.70710677 0
v 0.6935199 0.70710677 0.13794969
v 0.65328145 0.70710677 0.27059805
v 0.5879378 0.70710677 0.39284748
v 0.49999997 0.70710677 0.49999997
v 0.39284745 0.70710677 0.58793783
v 0.27059805 0.70710677 0.65328145
v 0.13794963 0.70710677 0.69351995
v -0.00000003090862 0.70710677 0.70710677
v -0.13794969 0.70710677 0.6935199
v -0.2705981 0.70710677 0.65328145
v -0.39284757 0.70710677 0.5879377
v -0.49999997 0.70710677 0.49999997
v -0.58793783 0.70710677 0.39284745
v -0.6532815 0.70710677 0.27059793
v -0.69351995 0.70710677 0.13794968
v -0.70710677 0.70710677 -0.00000006181724
v -0.6935199 0.70710677 -0.13794981
v -0.65328145 0.70710677 -0.27059805
v -0.5879377 0.70710677 -0.3928475
v -0.4999999 0.70710677 -0.50000006
v -0.3928473 0.70710677 -0.5879379
v -0.27059782 0.70710677 -0.65328157
v -0.13794973 0.70710677 -0.6935199
v 0.000000008432163 0.70710677 -0.70710677
v 0.13794975 0.70710677 -0.6935199
v 0.27059817 0.70710677 -0.6532814
v 0.3928476 0.70710677 -0.5879377
v 0.5000002 0.70710677 -0.49999982
v 0.5879378 0.70710677 -0.3928475
v 0.6532815 0.70710677 -0.27059805
v 0.69351995 0.70710677 -0.13794963
v 0.83146966 0.5555702 0
v 0.81549317 0.5555702 0.16221169
v 0.76817775 0.5555702 0.31818968
v 0.69134176 0.5555702 0.4619398
v 0.58793783 0.5555702 0.58793783
v 0.46193975 0.5555702 0.69134176
v 0.31818965 0.5555702 0.76817775
v 0.16221161 0.5555702 0.8154932
v -0.000000036344694 0.5555702 0.83146966
v -0.16221169 0.5555702 0.81549317
v -0.31818974 0.5555702 0.76817775
v -0.4619399 0.5555702 0.6913417
v -0.58793783 0.5555702 0.58793783
v -0.69134176 0.5555702 0.46193975
v -0.76817787 0.5555702 0.31818953
v -0.8154932 0.5555702 0.16221167
v -0.83146966 0.5555702 -0.00000007268939
v -0.81549317 0.5555702 -0.16221182
v -0.76817775 0.5555702 -0.31818965
v -0.6913417 0.5555702 -0.46193984
v -0.5879377 0.5555702 -0.5879379
v -0.4619396 0.5555702 -0.6913419
v -0.3181894 0.5555702 -0.7681779
v -0.16221173 0.5555702 -0.81549317
v 0.000000009915176 0.5555702 -0.83146966
v 0.16221176 0.5555702 -0.81549317
v 0.3181898 0.5555702 -0.76817775
v 0.46193996 0.5555702 -0.69134164
v 0.587938 0.5555702 -0.5879376
v 0.69134176 0.5555702 -0.46193984
v 0.7681778 0.5555702 -0.31818965
v 0.8154932 0.5555702 -0.16221161
v 0.9238795 0.38268343 0
v 0.9061274 0.38268343 0.18023995
v 0.85355335 0.38268343 0.3535534
v 0.7681777 0.38268343 0.51328
v 0.65328145 0.38268343 0.65328145
v 0.5132799 0.38268343 0.76817775
v 0.35355338 0.38268343 0.85355335
v 0.18023987 0.38268343 0.90612745
v -0.000000040384055 0.38268343 0.9238795
v -0.18023995 0.38268343 0.9061274
v -0.35355344 0.38268343 0.85355335
v -0.5132801 0.38268343 0.7681777
v -0.65328145 0.38268343 0.65328145
v -0.76817775 0.38268343 0.5132799
v -0.8535535 0.38268343 0.35355324
v -0.90612745 0.38268343 0.18023993
v -0.9238795 0.38268343 -0.00000008076811
v -0.9061274 0.38268343 -0.18024011
v -0.85355335 0.38268343 -0.35355338
v -0.7681777 0.38268343 -0.51328003
v -0.65328133 0.38268343 -0.65328157
v -0.51327974 0.38268343 -0.76817787
v -0.3535531 0.38268343 -0.8535535
v -0.18024 0.38268343 -0.9061274
v 0.0000000110171525 0.38268343 -0.9238795
v 0.18024004 0.38268343 -0.9061274
v 0.35355353 0.38268343 -0.8535533
v 0.51328015 0.38268343 -0.7681776
v 0.6532817 0.38268343 -0.6532812
v 0.7681777 0.38268343 -0.51328003
v 0.8535534 0.38268343 -0.35355338
v 0.90612745 0.38268343 -0.18023987
v 0.9807853 0.19509023 0
v 0.96193975 0.19509023 0.19134173
v 0.90612745 0.19509023 0.3753303
v 0.81549317 0.19509023 0.5448951
v 0.69351995 0.19509023 0.69351995
v 0.54489505 0.19509023 0.8154932
v 0.37533027 0.19509023 0.90612745
v 0.19134164 0.19509023 0.9619398
v -0.000000042871488 0.19509023 0.9807853
v -0.19134173 0.19509023 0.96193975
v -0.37533036 0.19509023 0.90612745
v -0.54489523 0.19509023 0.8154931
v -0.69351995 0.19509023 0.69351995
v -0.8154932 0.19509023 0.54489505
v -0.9061276 0.19509023 0.37533015
v -0.9619398 0.19509023 0.19134171
v -0.9807853 0.19509023 -0.000000085742975
v -0.96193975 0.19509023 -0.19134188
v -0.90612745 0.19509023 -0.37533027
v -0.8154931 0.19509023 -0.5448952
v -0.69351983 0.19509023 -0.69352007
v -0.5448949 0.19509023 -0.81549335
v -0.37533 0.19509023 -0.90612763
v -0.19134179 0.19509023 -0.96193975
v 0.0000000116957475 0.19509023 -0.9807853
v 0.19134182 0.19509023 -0.96193975
v 0.37533045 0.19509023 -0.9061274
v 0.5448953 0.19509023 -0.81549305
v 0.6935202 0.19509023 -0.6935197
v 0.81549317 0.19509023 -0.5448952
v 0.9061275 0.19509023 -0.37533027
v 0.9619398 0.19509023 -0.19134164
v 1 -0.00000004371139 0
v 0.98078525 -0.00000004371139 0.19509032
v 0.9238795 -0.00000004371139 0.38268346
v 0.8314696 -0.00000004371139 0.55557024
v 0.70710677 -0.00000004371139 0.70710677
v 0.5555702 -0.00000004371139 0.83146966
v 0.38268343 -0.00000004371139 0.9238795
v 0.19509023 -0.00000004371139 0.9807853
v -0.00000004371139 -0.00000004371139 1
v -0.19509032 -0.00000004371139 0.98078525
v -0.38268352 -0.00000004371139 0.9238795
v -0.55557036 -0.00000004371139 0.83146954
v -0.70710677 -0.00000004371139 0.70710677
v -0.83146966 -0.00000004371139 0.5555702
v -0.9238796 -0.00000004371139 0.38268328
v -0.9807853 -0.00000004371139 0.19509031
v -1 -0.00000004371139 -0.00000008742278
v -0.98078525 -0.00000004371139 -0.19509049
v -0.9238795 -0.00000004371139 -0.38268343
v -0.83146954 -0.00000004371139 -0.5555703
v -0.70710665 -0.00000004371139 -0.7071069
v -0.55557 -0.00000004371139 -0.8314698
v -0.38268313 -0.00000004371139 -0.9238797
v -0.19509038 -0.00000004371139 -0.98078525
v 0.000000011924881 -0.00000004371139 -1
v 0.19509041 -0.00000004371139 -0.98078525
v 0.3826836 -0.00000004371139 -0.92387944
v 0.5555704 -0.00000004371139 -0.8314695
v 0.707107 -0.00000004371139 -0.70710653
v 0.8314696 -0.00000004371139 -0.5555703
v 0.92387956 -0.00000004371139 -0.38268343
v 0.9807853 -0.00000004371139 -0.19509023
v 0.98078525 -0.19509032 0
v 0.9619397 -0.19509032 0.19134171
v 0.9061274 -0.19509032 0.3753303
v 0.8154931 -0.19509032 0.5448951
v 0.6935199 -0.19509032 0.6935199
v 0.54489505 -0.19509032 0.81549317
v 0.37533027 -0.19509032 0.9061274
v 0.19134162 -0.19509032 0.96193975
v -0.000000042871484 -0.19509032 0.98078525
v -0.19134171 -0.19509032 0.9619397
v -0.37533036 -0.19509032 0.9061274
v -0.54489523 -0.19509032 0.81549305
v -0.6935199 -0.19509032 0.6935199
v -0.81549317 -0.19509032 0.54489505
v -0.9061275 -0.19509032 0.37533012
v -0.96193975 -0.19509032 0.1913417
v -0.98078525 -0.19509032 -0.00000008574297
v -0.9619397 -0.19509032 -0.19134188
v -0.9061274 -0.19509032 -0.37533027
v -0.81549305 -0.19509032 -0.5448952
v -0.6935198 -0.19509032 -0.69352
v -0.5448949 -0.19509032 -0.8154933
v -0.37532997 -0.19509032 -0.9061276
v -0.19134177 -0.19509032 -0.9619397
v 0.0000000116957475 -0.19509032 -0.98078525
v 0.1913418 -0.19509032 -0.9619397
v 0.37533045 -0.19509032 -0.90612733
v 0.5448953 -0.19509032 -0.815493
v 0.6935201 -0.19509032 -0.69351965
v 0.8154931 -0.19509032 -0.5448952
v 0.90612745 -0.19509032 -0.37533027
v 0.96193975 -0.19509032 -0.19134162
v 0.9238795 -0.38268352 0
v 0.9061274 -0.38268352 0.18023995
v 0.85355335 -0.38268352 0.3535534
v 0.7681777 -0.38268352 0.51328
v 0.65328145 -0.38268352 0.65328145
v 0.5132799 -0.38268352 0.76817775
v 0.35355338 -0.38268352 0.85355335
v 0.18023987 -0.38268352 0.90612745
v -0.000000040384055 -0.38268352 0.9238795
v -0.18023995 -0.38268352 0.9061274
v -0.35355344 -0.38268352 0.85355335
v -0.5132801 -0.38268352 0.7681777
v -0.65328145 -0.38268352 0.65328145
v -0.76817775 -0.38268352 0.5132799
v -0.8535535 -0.38268352 0.35355324
v -0.90612745 -0.38268352 0.18023993
v -0.9238795 -0.38268352 -0.00000008076811
v -0.9061274 -0.38268352 -0.18024011
v -0.85355335 -0.38268352 -0.35355338
v -0.7681777 -0.38268352 -0.51328003
v -0.65328133 -0.38268352 -0.65328157
v -0.51327974 -0.38268352 -0.76817787
v -0.3535531 -0.38268352 -0.8535535
v -0.18024 -0.38268352 -0.9061274
v 0.0000000110171525 -0.38268352 -0.9238795
v 0.18024004 -0.38268352 -0.9061274
v 0.35355353 -0.38268352 -0.8535533
v 0.51328015 -0.38268352 -0.7681776
v 0.6532817 -0.38268352 -0.6532812
v 0.7681777 -0.38268352 -0.51328003
v 0.8535534 -0.38268352 -0.35355338
v 0.90612745 -0.38268352 -0.18023987
v 0.83146954 -0.55557036 0
v 0.81549305 -0.55557036 0.16221166
v 0.7681777 -0.55557036 0.31818962
v 0.69134164 -0.55557036 0.46193972
v 0.5879377 -0.55557036 0.5879377
v 0.4619397 -0.55557036 0.6913417
v 0.31818962 -0.55557036 0.7681777
v 0.16221158 -0.55557036 0.8154931
v -0.000000036344687 -0.55557036 0.83146954
v -0.16221166 -0.55557036 0.81549305
v -0.31818968 -0.55557036 0.7681777
v -0.46193984 -0.55557036 0.6913416
v -0.5879377 -0.55557036 0.5879377
v -0.6913417 -0.55557036 0.4619397
v -0.76817775 -0.55557036 0.31818947
v -0.8154931 -0.55557036 0.16221164
v -0.83146954 -0.55557036 -0.000000072689375
v -0.81549305 -0.55557036 -0.16221179
v -0.7681777 -0.55557036 -0.31818962
v -0.6913416 -0.55557036 -0.46193978
v -0.58793765 -0.55557036 -0.58793783
v -0.46193954 -0.55557036 -0.69134176
v -0.31818935 -0.55557036 -0.7681778
v -0.16221172 -0.55557036 -0.81549305
v 0.000000009915175 -0.55557036 -0.83146954
v 0.16221173 -0.55557036 -0.81549305
v 0.31818977 -0.55557036 -0.7681776
v 0.46193987 -0.55557036 -0.6913415
v 0.58793795 -0.55557036 -0.58793753
v 0.69134164 -0.55557036 -0.46193978
v 0.7681777 -0.55557036 -0.31818962
v 0.8154931 -0.55557036 -0.16221158
v 0.70710677 -0.70710677 0
v 0.6935199 -0.70710677 0.13794969
v 0.65328145 -0.70710677 0.27059805
v 0.5879378 -0.70710677 0.39284748
v 0.49999997 -0.70710677 0.49999997
v 0.39284745 -0.70710677 0.58793783
v 0.27059805 -0.70710677 0.65328145
v 0.13794963 -0.70710677 0.69351995
v -0.00000003090862 -0.70710677 0.70710677
v -0.13794969 -0.70710677 0.6935199
v -0.2705981 -0.70710677 0.65328145
v -0.39284757 -0.70710677 0.5879377
v -0.49999997 -0.70710677 0.49999997
v -0.58793783 -0.70710677 0.39284745
v -0.6532815 -0.70710677 0.27059793
v -0.69351995 -0.70710677 0.13794968
v -0.70710677 -0.70710677 -0.00000006181724
v -0.6935199 -0.70710677 -0.13794981
v -0.65328145 -0.70710677 -0.27059805
v -0.5879377 -0.70710677 -0.3928475
v -0.4999999 -0.70710677 -0.50000006
v -0.3928473 -0.70710677 -0.5879379
v -0.27059782 -0.70710677 -0.65328157
v -0.13794973 -0.70710677 -0.6935199
v 0.000000008432163 -0.70710677 -0.70710677
v 0.13794975 -0.70710677 -0.6935199
v 0.27059817 -0.70710677 -0.6532814
v 0.3928476 -0.70710677 -0.5879377
v 0.5000002 -0.70710677 -0.49999982
v 0.5879378 -0.70710677 -0.3928475
v 0.6532815 -0.70710677 -0.27059805
v 0.69351995 -0.70710677 -0.13794963
v 0.5555702 -0.83146966 0
v 0.54489505 -0.83146966 0.10838637
v 0.5132799 -0.83146966 0.21260752
v 0.46193972 -0.83146966 0.30865827
v 0.39284745 -0.83146966 0.39284745
v 0.30865824 -0.83146966 0.46193975
v 0.2126075 -0.83146966 0.5132799
v 0.108386315 -0.83146966 0.54489505
v -0.000000024284745 -0.83146966 0.5555702
v -0.10838637 -0.83146966 0.54489505
v -0.21260755 -0.83146966 0.5132799
v -0.30865833 -0.83146966 0.4619397
v -0.39284745 -0.83146966 0.39284745
v -0.46193975 -0.83146966 0.30865824
v -0.51328 -0.83146966 0.21260741
v -0.54489505 -0.83146966 0.10838636
v -0.5555702 -0.83146966 -0.00000004856949
v -0.54489505 -0.83146966 -0.10838646
v -0.5132799 -0.83146966 -0.2126075
v -0.4619397 -0.83146966 -0.3086583
v -0.39284736 -0.83146966 -0.3928475
v -0.30865812 -0.83146966 -0.4619398
v -0.21260734 -0.83146966 -0.51328003
v -0.1083864 -0.83146966 -0.54489505
v 0.000000006625108 -0.83146966 -0.5555702
v 0.10838642 -0.83146966 -0.54489505
v 0.2126076 -0.83146966 -0.51327986
v 0.30865836 -0.83146966 -0.46193966
v 0.39284757 -0.83146966 -0.3928473
v 0.46193972 -0.83146966 -0.3086583
v 0.5132799 -0.83146966 -0.2126075
v 0.54489505 -0.83146966 -0.108386315
v 0.38268328 -0.9238796 0
v 0.37533012 -0.9238796 0.074657805
v 0.35355324 -0.9238796 0.14644656
v 0.3181895 -0.9238796 0.21260744
v 0.27059793 -0.9238796 0.27059793
v 0.21260741 -0.9238796 0.31818953
v 0.14644654 -0.9238796 0.35355324
v 0.07465777 -0.9238796 0.37533015
v -0.000000016727617 -0.9238796 0.38268328
v -0.074657805 -0.9238796 0.37533012
v -0.14644659 -0.9238796 0.35355324
v -0.21260749 -0.9238796 0.31818947
v -0.27059793 -0.9238796 0.27059793
v -0.31818953 -0.9238796 0.21260741
v -0.3535533 -0.9238796 0.1464465
v -0.37533015 -0.9238796 0.0746578
v -0.38268328 -0.9238796 -0.000000033455233
v -0.37533012 -0.9238796 -0.074657865
v -0.35355324 -0.9238796 -0.14644654
v -0.31818947 -0.9238796 -0.21260746
v -0.2705979 -0.9238796 -0.270598
v -0.21260735 -0.9238796 -0.3181896
v -0.14644644 -0.9238796 -0.3535533
v -0.07465783 -0.9238796 -0.37533012
v 0.0000000045634523 -0.9238796 -0.38268328
v 0.074657835 -0.9238796 -0.37533012
v 0.14644662 -0.9238796 -0.3535532
v 0.2126075 -0.9238796 -0.31818947
v 0.27059802 -0.9238796 -0.27059785
v 0.3181895 -0.9238796 -0.21260746
v 0.35355327 -0.9238796 -0.14644654
v 0.37533015 -0.9238796 -0.07465777
v 0.19509031 -0.9807853 0
v 0.1913417 -0.9807853 0.038060233
v 0.18023993 -0.9807853 0.074657835
v 0.16221166 -0.9807853 0.10838637
v 0.13794968 -0.9807853 0.13794968
v 0.10838636 -0.9807853 0.16221167
v 0.07465783 -0.9807853 0.18023993
v 0.038060214 -0.9807853 0.19134171
v -0.000000008527668 -0.9807853 0.19509031
v -0.038060233 -0.9807853 0.1913417
v -0.07465784 -0.9807853 0.18023993
v -0.1083864 -0.9807853 0.16221164
v -0.13794968 -0.9807853 0.13794968
v -0.16221167 -0.9807853 0.10838636
v -0.18023996 -0.9807853 0.0746578
v -0.19134171 -0.9807853 0.03806023
v -0.19509031 -0.9807853 -0.000000017055337
v -0.1913417 -0.9807853 -0.038060263
v -0.18023993 -0.9807853 -0.07465783
v -0.16221164 -0.9807853 -0.10838638
v -0.13794966 -0.9807853 -0.1379497
v -0.10838632 -0.9807853 -0.1622117
v -0.07465777 -0.9807853 -0.18023998
v -0.038060244 -0.9807853 -0.1913417
v 0.0000000023264286 -0.9807853 -0.19509031
v 0.038060248 -0.9807853 -0.1913417
v 0.074657865 -0.9807853 -0.18023993
v 0.108386405 -0.9807853 -0.16221164
v 0.13794972 -0.9807853 -0.13794963
v 0.16221166 -0.9807853 -0.10838638
v 0.18023995 -0.9807853 -0.07465783
v 0.19134171 -0.9807853 -0.038060214
v 0 -1 0
f 1 3 2
f 1 4 3
f 1 5 4
f 1 6 5
f 1 7 6
f 1 8 7
f 1 9 8
f 1 10 9
f 1 11 10
f 1 12 11
f 1 13 12
f 1 14 13
f 1 15 14
f 1 16 15
f 1 17 16
f 1 18 17
f 1 19 18
f 1 20 19
f 1 21 20
f 1 22 21
f 1 23 22
f 1 24 23
f 1 25 24
f 1 26 25
f 1 27 26
f 1 28 27
f 1 29 28
f 1 30 29
f 1 31 30
f 1 32 31
f 1 33 32
f 1 2 33
f 2 3 35 34
f 3 4 36 35
f 4 5 37 36
f 5 6 38 37
f 6 7 39 38
f 7 8 40 39
f 8 9 41 40
f 9 10 42 41
f 10 11 43 42
f 11 12 44 43
f 12 13 45 44
f 13 14 46 45
f 14 15 47 46
f 15 16 48 47
f 16 17 49 48
f 17 18 50 49
f 18 19 51 50
f 19 20 52 51
f 20 21 53 52
f 21 22 54 53
f 22 23 55 54
f 23 24 56 55
f 24 25 57 56
f 25 26 58 57
f 26 27 59 58
f 27 28 60 59
f 28 29 61 60
f 29 30 62 61
f 30 31 63 62
f 31 32 64 63
f 32 33 65 64
f 33 2 34 65
f 34 35 67 66
f 35 36 68 67
f 36 37 69 68
f 37 38 70 69
f 38 39 71 70
f 39 40 72 71
f 40 41 73 72
f 41 42 74 73
f 42 43 75 74
f 43 44 76 75
f 44 45 77 76
f 45 46 78 77
f 46 47 79 78
f 47 48 80 79
f 48 49 81 80
f 49 50 82 81
f 50 51 83 82
f 51 52 84 83
f 52 53 85 84
f 53 54 86 85
f 54 55 87 86
f 55 56 88 87
f 56 57 89 88
f 57 58 90 89
f 58 59 91 90
f 59 60 92 91
f 60 61 93 92
f 61 62 94 93
f 62 63 95 94
f 63 64 96 95
f 64 65 97 96
f 65 34 66 97
f 66 67 99 98
f 67 68 100 99
f 68 69 101 100
f 69 70 102 101
f 70 71 103 102
f 71 72 104 103
f 72 73 105 104
f 73 74 106 105
f 74 75 107 106
f 75 76 108 107
f 76 77 109 108
f 77 78 110 109
f 78 79 111 110
f 79 80 112 111
f 80 81 113 112
f 81 82 114 113
f 82 83 115 114
f 83 84 116 115
f 84 85 117 116
f 85 86 118 117
f 86 87 119 118
f 87 88 120 119
f 88 89 121 120
f 89 90 122 121
f 90 91 123 122
f 91 92 124 123
f 92 93 125 124
f 93 94 126 125
f 94 95 127 126
f 95 96 128 127
f 96 97 129 128
f 97 66 98 129
f 98 99 131 130
f 99 100 132 131
f 100 101 133 132
f 101 102 134 133
f 102 103 135 134
f 103 104 136 135
f 104 105 137 136
f 105 106 138 137
f 106 107 139 138
f 107 108 140 139
f 108 109 141 140
f 109 110 142 141
f 110 111 143 142
f 111 112 144 143
f 112 113 145 144
f 113 114 146 145
f 114 115 147 146
f 115 116 148 147
f 116 117 149 148
f 117 118 150 149
f 118 119 151 150
f 119 120 152 151
f 120 121 153 152
f 121 122 154 153
f 122 123 155 154
f 123 124 156 155
f 124 125 157 156
f 125 126 158 157
f 126 127 159 158
f 127 128 160 159
f 128 129 161 160
f 129 98 130 161
f 130 131 163 162
f 131 132 164 163
f 132 133 165 164
f 133 134 166 165
f 134 135 167 166
f 135 136 168 167
f 136 137 169 168
f 137 138 170 169
f 138 139 171 170
f 139 140 172 171
f 140 141 173 172
f 141 142 174 173
f 142 143 175 174
f 143 144 176 175
f 144 145 177 176
f 145 146 178 177
f 146 147 179 178
f 147 148 180 179
f 148 149 181 180
f 149 150 182 181
f 150 151 183 182
f 151 152 184 183
f 152 153 185 184
f 153 154 186 185
f 154 155 187 186
f 155 156 188 187
f 156 157 189 188
f 157 158 190 189
f 158 159 191 190
f 159 160 192 191
f 160 161 193 192
f 161 130 162 193
f 162 163 195 194
f 163 164 196 195
f 164 165 197 196
f 165 166 198 197
f 166 167 199 198
f 167 168 200 199
f 168 169 201 200
f 169 170 202 201
f 170 171 203 202
f 171 172 204 203
f 172 173 205 204
f 173 174 206 205
f 174 175 207 206
f 175 176 208 207
f 176 177 209 208
f 177 178 210 209
f 178 179 211 210
f 179 180 212 211
f 180 181 213 212
f 181 182 214 213
f 182 183 215 214
f 183 184 216 215
f 184 185 217 216
f 185 186 218 217
f 186 187 219 218
f 187 188 220 219
f 188 189 221 220
f 189 190 222 221
f 190 191 223 222
f 191 192 224 223
f 192 193 225 224
f 193 162 194 225
f 194 195 227 226
f 195 196 228 227
f 196 197 229 228
f 197 198 230 229
f 198 199 231 230
f 199 200 232 231
f 200 201 233 232
f 201 202 234 233
f 202 203 235 234
f 203 204 236 235
f 204 205 237 236
f 205 206 238 237
f 206 207 239 238
f 207 208 240 239
f 208 209 241 240
f 209 210 242 241
f 210 211 243 242
f 211 212 244 243
f 212 213 245 244
f 213 214 246 245
f 214 215 247 246
f 215 216 248 247
f 216 217 249 248
f 217 218 250 249
f 218 219 251 250
f 219 220 252 251
f 220 221 253 252
f 221 222 254 253
f 222 223 255 254
f 223 224 256 255
f 224 225 257 256
f 225 194 226 257
f 226 227 259 258
f 227 228 260 259
f 228 229 261 260
f 229 230 262 261
f 230 231 263 262
f 231 232 264 263
f 232 233 265 264
f 233 234 266 265
f 234 235 267 266
f 235 236 268 267
f 236 237 269 268
f 237 238 270 269
f 238 239 271 270
f 239 240 272 271
f 240 241 273 272
f 241 242 274 273
f 242 243 275 274
f 243 244 276 275
f 244 245 277 276
f 245 246 278 277
f 246 247 279 278
f 247 248 280 279
f 248 249 281 280
f 249 250 282 281
f 250 251 283 282
f 251 252 284 283
f 252 253 285 284
f 253 254 286 285
f 254 255 287 286
f 255 256 288 287
f 256 257 289 288
f 257 226 258 289
f 258 259 291 290
f 259 260 292 291
f 260 261 293 292
f 261 262 294 293
f 262 263 295 294
f 263 264 296 295
f 264 265 297 296
f 265 266 298 297
f 266 267 299 298
f 267 268 300 299
f 268 269 301 300
f 269 270 302 301
f 270 271 303 302
f 271 272 304 303
f 272 273 305 304
f 273 274 306 305
f 274 275 307 306
f 275 276 308 307
f 276 277 309 308
f 277 278 310 309
f 278 279 311 310
f 279 280 312 311
f 280 281 313 312
f 281 282 314 313
f 282 283 315 314
f 283 284 316 315
f 284 285 317 316
f 285 286 318 317
f 286 287 319 318
f 287 288 320 319
f 288 289 321 320
f 289 258 290 321
f 290 291 323 322
f 291 292 324 323
f 292 293 325 324
f 293 294 326 325
f 294 295 327 326
f 295 296 328 327
f 296 297 329 328
f 297 298 330 329
f 298 299 331 330
f 299 300 332 331
f 300 301 333 332
f 301 302 334 333
f 302 303 335 334
f 303 304 336 335
f 304 305 337 336
f 305 306 338 337
f 306 307 339 338
f 307 308 340 339
f 308 309 341 340
f 309 310 342 341
f 310 311 343 342
f 311 312 344 343
f 312 313 345 344
f 313 314 346 345
f 314 315 347 346
f 315 316 348 347
f 316 317 349 348
f 317 318 350 349
f 318 319 351 350
f 319 320 352 351
f 320 321 353 352
f 321 290 322 353
f 322 323 355 354
f 323 324 356 355
f 324 325 357 356
f 325 326 358 357
f 326 327 359 358
f 327 328 360 359
f 328 329 361 360
f 329 330 362 361
f 330 331 363 362
f 331 332 364 363
f 332 333 365 364
f 333 334 366 365
f 334 335 367 366
f 335 336 368 367
f 336 337 369 368
f 337 338 370 369
f 338 339 371 370
f 339 340 372 371
f 340 341 373 372
f 341 342 374 373
f 342 343 375 374
f 343 344 376 375
f 344 345 377 376
f 345 346 378 377
f 346 347 379 378
f 347 348 380 379
f 348 349 381 380
f 349 350 382 381
f 350 351 383 382
f 351 352 384 383
f 352 353 385 384
f 353 322 354 385
f 354 355 387 386
f 355 356 388 387
f 356 357 389 388
f 357 358 390 389
f 358 359 391 390
f 359 360 392 391
f 360 361 393 392
f 361 362 394 393
f 362 363 395 394
f 363 364 396 395
f 364 365 397 396
f 365 366 398 397
f 366 367 399 398
f 367 368 400 399
f 368 369 401 400
f 369 370 402 401
f 370 371 403 402
f 371 372 404 403
f 372 373 405 404
f 373 374 406 405
f 374 375 407 406
f 375 376 408 407
f 376 377 409 408
f 377 378 410 409
f 378 379 411 410
f 379 380 412 411
f 380 381 413 412
f 381 382 414 413
f 382 383 415 414
f 383 384 416 415
f 384 385 417 416
f 385 354 386 417
f 386 387 419 418
f 387 388 420 419
f 388 389 421 420
f 389 390 422 421
f 390 391 423 422
f 391 392 424 423
f 392 393 425 424
f 393 394 426 425
f 394 395 427 426
f 395 396 428 427
f 396 397 429 428
f 397 398 430 429
f 398 399 431 430
f 399 400 432 431
f 400 401 433 432
f 401 402 434 433
f 402 403 435 434
f 403 404 436 435
f 404 405 437 436
f 405 406 438 437
f 406 407 439 438
f 407 408 440 439
f 408 409 441 440
f 409 410 442 441
f 410 411 443 442
f 411 412 444 443
f 412 413 445 444
f 413 414 446 445
f 414 415 447 446
f 415 416 448 447
f 416 417 449 448
f 417 386 418 449
f 418 419 451 450
f 419 420 452 451
f 420 421 453 452
f 421 422 454 453
f 422 423 455 454
f 423 424 456 455
f 424 425 457 456
f 425 426 458 457
f 426 427 459 458
f 427 428 460 459
f 428 429 461 460
f 429 430 462 461
f 430 431 463 462
f 431 432 464 463
f 432 433 465 464
f 433 434 466 465
f 434 435 467 466
f 435 436 468 467
f 436 437 469 468
f 437 438 470 469
f 438 439 471 470
f 439 440 472 471
f 440 441 473 472
f 441 442 474 473
f 442 443 475 474
f 443 444 476 475
f 444 445 477 476
f 445 446 478 477
f 446 447 479 478
f 447 448 480 479
f 448 449 481 480
f 449 418 450 481
f 482 450 451
f 482 451 452
f 482 452 453
f 482 453 454
f 482 454 455
f 482 455 456
f 482 456 457
f 482 457 458
f 482 458 459
f 482 459 460
f 482 460 461
f 482 461 462
f 482 462 463
f 482 463 464
f 482 464 465
f 482 465 466
f 482 466 467
f 482 467 468
f 482 468 469
f 482 469 470
f 482 470 471
f 482 471 472
f 482 472 473
f 482 473 474
f 482 474 475
f 482 475 476
f 482 476 477
f 482 477 478
f 482 478 479
f 482 479 480
f 482 480 481
f 482 481 450
