<svg xmlns="http://www.w3.org/2000/svg" viewBox="-230 -230 460 460" width="260" height="260" role="img">
<rect x="-230" y="-230" width="460" height="460" rx="14" fill="#141317"/>
<circle cx="-198.48" cy="115.63" r="3.4" fill="#c9a6ff"/>
<circle cx="-195.41" cy="107.16" r="3.4" fill="#c9a6ff"/>
<circle cx="-192.14" cy="98.64" r="3.4" fill="#c9a6ff"/>
<circle cx="-188.75" cy="90.30" r="3.4" fill="#c9a6ff"/>
<circle cx="-185.15" cy="81.97" r="3.4" fill="#c9a6ff"/>
<circle cx="-181.34" cy="73.71" r="3.4" fill="#c9a6ff"/>
<circle cx="-177.34" cy="65.62" r="3.4" fill="#c9a6ff"/>
<circle cx="-173.10" cy="57.68" r="3.4" fill="#c9a6ff"/>
<circle cx="-168.55" cy="49.79" r="3.4" fill="#c9a6ff"/>
<circle cx="-163.70" cy="42.11" r="3.4" fill="#c9a6ff"/>
<circle cx="-158.54" cy="34.67" r="3.4" fill="#c9a6ff"/>
<circle cx="-153.01" cy="27.49" r="3.4" fill="#c9a6ff"/>
<circle cx="-147.09" cy="20.65" r="3.4" fill="#c9a6ff"/>
<circle cx="-140.74" cy="14.20" r="3.4" fill="#c9a6ff"/>
<circle cx="-133.93" cy="8.23" r="3.4" fill="#c9a6ff"/>
<circle cx="-126.67" cy="2.85" r="3.4" fill="#c9a6ff"/>
<circle cx="-118.96" cy="-1.86" r="3.4" fill="#c9a6ff"/>
<circle cx="-110.80" cy="-5.82" r="3.4" fill="#c9a6ff"/>
<circle cx="-102.30" cy="-8.95" r="3.4" fill="#c9a6ff"/>
<circle cx="-93.54" cy="-11.21" r="3.4" fill="#c9a6ff"/>
<circle cx="-84.59" cy="-12.63" r="3.4" fill="#c9a6ff"/>
<circle cx="-75.56" cy="-13.28" r="3.4" fill="#c9a6ff"/>
<circle cx="-66.50" cy="-13.22" r="3.4" fill="#c9a6ff"/>
<circle cx="-57.47" cy="-12.57" r="3.4" fill="#c9a6ff"/>
<circle cx="-48.48" cy="-11.41" r="3.4" fill="#c9a6ff"/>
<circle cx="-39.56" cy="-9.85" r="3.4" fill="#c9a6ff"/>
<circle cx="-30.70" cy="-7.97" r="3.4" fill="#c9a6ff"/>
<circle cx="-21.88" cy="-5.86" r="3.4" fill="#c9a6ff"/>
<circle cx="-13.11" cy="-3.58" r="3.4" fill="#c9a6ff"/>
<circle cx="-4.37" cy="-1.20" r="3.4" fill="#c9a6ff"/>
<circle cx="4.37" cy="1.20" r="3.4" fill="#c9a6ff"/>
<circle cx="13.11" cy="3.58" r="3.4" fill="#c9a6ff"/>
<circle cx="21.88" cy="5.86" r="3.4" fill="#c9a6ff"/>
<circle cx="30.70" cy="7.97" r="3.4" fill="#c9a6ff"/>
<circle cx="39.56" cy="9.85" r="3.4" fill="#c9a6ff"/>
<circle cx="48.48" cy="11.41" r="3.4" fill="#c9a6ff"/>
<circle cx="57.47" cy="12.57" r="3.4" fill="#c9a6ff"/>
<circle cx="66.50" cy="13.22" r="3.4" fill="#c9a6ff"/>
<circle cx="75.56" cy="13.28" r="3.4" fill="#c9a6ff"/>
<circle cx="84.59" cy="12.63" r="3.4" fill="#c9a6ff"/>
<circle cx="93.54" cy="11.21" r="3.4" fill="#c9a6ff"/>
<circle cx="102.30" cy="8.95" r="3.4" fill="#c9a6ff"/>
<circle cx="110.80" cy="5.82" r="3.4" fill="#c9a6ff"/>
<circle cx="118.96" cy="1.86" r="3.4" fill="#c9a6ff"/>
<circle cx="126.67" cy="-2.85" r="3.4" fill="#c9a6ff"/>
<circle cx="133.93" cy="-8.23" r="3.4" fill="#c9a6ff"/>
<circle cx="140.74" cy="-14.20" r="3.4" fill="#c9a6ff"/>
<circle cx="147.09" cy="-20.65" r="3.4" fill="#c9a6ff"/>
<circle cx="153.01" cy="-27.49" r="3.4" fill="#c9a6ff"/>
<circle cx="158.54" cy="-34.67" r="3.4" fill="#c9a6ff"/>
<circle cx="163.70" cy="-42.11" r="3.4" fill="#c9a6ff"/>
<circle cx="168.55" cy="-49.79" r="3.4" fill="#c9a6ff"/>
<circle cx="173.10" cy="-57.68" r="3.4" fill="#c9a6ff"/>
<circle cx="177.34" cy="-65.62" r="3.4" fill="#c9a6ff"/>
<circle cx="181.34" cy="-73.71" r="3.4" fill="#c9a6ff"/>
<circle cx="185.15" cy="-81.97" r="3.4" fill="#c9a6ff"/>
<circle cx="188.75" cy="-90.30" r="3.4" fill="#c9a6ff"/>
<circle cx="192.14" cy="-98.64" r="3.4" fill="#c9a6ff"/>
<circle cx="195.41" cy="-107.16" r="3.4" fill="#c9a6ff"/>
<circle cx="198.48" cy="-115.63" r="3.4" fill="#c9a6ff"/>
</svg>
