<svg xmlns="http://www.w3.org/2000/svg" viewBox="157.86 -124.57 253.26 256.80" width="340" height="345" role="img">
<rect x="157.86" y="-124.57" width="253.26" height="256.80" rx="9.74" fill="#141317"/>
<rect x="189.61" y="110.41" width="6.56" height="6.56" rx="1.18" fill="#ffffff" fill-opacity="0.105"/>
<rect x="229.61" y="110.41" width="6.56" height="6.56" rx="1.18" fill="#ffffff" fill-opacity="0.105"/>
<rect x="269.61" y="110.41" width="6.56" height="6.56" rx="1.18" fill="#ffffff" fill-opacity="0.105"/>
<rect x="309.61" y="110.41" width="6.56" height="6.56" rx="1.18" fill="#ffffff" fill-opacity="0.105"/>
<rect x="349.61" y="110.41" width="6.56" height="6.56" rx="1.18" fill="#ffffff" fill-opacity="0.105"/>
<rect x="389.61" y="110.41" width="6.56" height="6.56" rx="1.18" fill="#ffffff" fill-opacity="0.105"/>
<rect x="189.61" y="70.41" width="6.56" height="6.56" rx="1.18" fill="#ffffff" fill-opacity="0.105"/>
<rect x="229.61" y="70.41" width="6.56" height="6.56" rx="1.18" fill="#ffffff" fill-opacity="0.105"/>
<rect x="269.61" y="70.41" width="6.56" height="6.56" rx="1.18" fill="#ffffff" fill-opacity="0.105"/>
<rect x="309.61" y="70.41" width="6.56" height="6.56" rx="1.18" fill="#ffffff" fill-opacity="0.105"/>
<rect x="349.61" y="70.41" width="6.56" height="6.56" rx="1.18" fill="#ffffff" fill-opacity="0.105"/>
<rect x="389.61" y="70.41" width="6.56" height="6.56" rx="1.18" fill="#ffffff" fill-opacity="0.105"/>
<rect x="189.61" y="30.41" width="6.56" height="6.56" rx="1.18" fill="#ffffff" fill-opacity="0.105"/>
<rect x="229.61" y="30.41" width="6.56" height="6.56" rx="1.18" fill="#ffffff" fill-opacity="0.105"/>
<rect x="269.61" y="30.41" width="6.56" height="6.56" rx="1.18" fill="#ffffff" fill-opacity="0.105"/>
<rect x="309.61" y="30.41" width="6.56" height="6.56" rx="1.18" fill="#ffffff" fill-opacity="0.105"/>
<rect x="349.61" y="30.41" width="6.56" height="6.56" rx="1.18" fill="#ffffff" fill-opacity="0.105"/>
<rect x="389.61" y="30.41" width="6.56" height="6.56" rx="1.18" fill="#ffffff" fill-opacity="0.105"/>
<rect x="189.61" y="-9.59" width="6.56" height="6.56" rx="1.18" fill="#ffffff" fill-opacity="0.105"/>
<rect x="229.61" y="-9.59" width="6.56" height="6.56" rx="1.18" fill="#ffffff" fill-opacity="0.105"/>
<rect x="269.61" y="-9.59" width="6.56" height="6.56" rx="1.18" fill="#ffffff" fill-opacity="0.105"/>
<rect x="309.61" y="-9.59" width="6.56" height="6.56" rx="1.18" fill="#ffffff" fill-opacity="0.105"/>
<rect x="349.61" y="-9.59" width="6.56" height="6.56" rx="1.18" fill="#ffffff" fill-opacity="0.105"/>
<rect x="389.61" y="-9.59" width="6.56" height="6.56" rx="1.18" fill="#ffffff" fill-opacity="0.105"/>
<rect x="189.61" y="-49.59" width="6.56" height="6.56" rx="1.18" fill="#ffffff" fill-opacity="0.105"/>
<rect x="229.61" y="-49.59" width="6.56" height="6.56" rx="1.18" fill="#ffffff" fill-opacity="0.105"/>
<rect x="269.61" y="-49.59" width="6.56" height="6.56" rx="1.18" fill="#ffffff" fill-opacity="0.105"/>
<rect x="309.61" y="-49.59" width="6.56" height="6.56" rx="1.18" fill="#ffffff" fill-opacity="0.105"/>
<rect x="349.61" y="-49.59" width="6.56" height="6.56" rx="1.18" fill="#ffffff" fill-opacity="0.105"/>
<rect x="389.61" y="-49.59" width="6.56" height="6.56" rx="1.18" fill="#ffffff" fill-opacity="0.105"/>
<rect x="189.61" y="-89.59" width="6.56" height="6.56" rx="1.18" fill="#ffffff" fill-opacity="0.105"/>
<rect x="229.61" y="-89.59" width="6.56" height="6.56" rx="1.18" fill="#ffffff" fill-opacity="0.105"/>
<rect x="269.61" y="-89.59" width="6.56" height="6.56" rx="1.18" fill="#ffffff" fill-opacity="0.105"/>
<rect x="309.61" y="-89.59" width="6.56" height="6.56" rx="1.18" fill="#ffffff" fill-opacity="0.105"/>
<rect x="349.61" y="-89.59" width="6.56" height="6.56" rx="1.18" fill="#ffffff" fill-opacity="0.105"/>
<rect x="389.61" y="-89.59" width="6.56" height="6.56" rx="1.18" fill="#ffffff" fill-opacity="0.105"/>
<rect x="186.59" y="110.59" width="6.83" height="6.83" rx="1.23" fill="#ffffff" fill-opacity="0.130"/>
<rect x="226.59" y="110.59" width="6.83" height="6.83" rx="1.23" fill="#ffffff" fill-opacity="0.130"/>
<rect x="266.59" y="110.59" width="6.83" height="6.83" rx="1.23" fill="#ffffff" fill-opacity="0.130"/>
<rect x="306.59" y="110.59" width="6.83" height="6.83" rx="1.23" fill="#ffffff" fill-opacity="0.130"/>
<rect x="346.59" y="110.59" width="6.83" height="6.83" rx="1.23" fill="#ffffff" fill-opacity="0.130"/>
<rect x="386.59" y="110.59" width="6.83" height="6.83" rx="1.23" fill="#ffffff" fill-opacity="0.130"/>
<rect x="186.59" y="70.59" width="6.83" height="6.83" rx="1.23" fill="#ffffff" fill-opacity="0.130"/>
<rect x="226.59" y="70.59" width="6.83" height="6.83" rx="1.23" fill="#ffffff" fill-opacity="0.130"/>
<rect x="266.59" y="70.59" width="6.83" height="6.83" rx="1.23" fill="#ffffff" fill-opacity="0.130"/>
<rect x="306.59" y="70.59" width="6.83" height="6.83" rx="1.23" fill="#ffffff" fill-opacity="0.130"/>
<rect x="346.59" y="70.59" width="6.83" height="6.83" rx="1.23" fill="#ffffff" fill-opacity="0.130"/>
<rect x="386.59" y="70.59" width="6.83" height="6.83" rx="1.23" fill="#ffffff" fill-opacity="0.130"/>
<rect x="186.59" y="30.59" width="6.83" height="6.83" rx="1.23" fill="#ffffff" fill-opacity="0.130"/>
<rect x="226.59" y="30.59" width="6.83" height="6.83" rx="1.23" fill="#ffffff" fill-opacity="0.130"/>
<rect x="266.59" y="30.59" width="6.83" height="6.83" rx="1.23" fill="#ffffff" fill-opacity="0.130"/>
<rect x="306.59" y="30.59" width="6.83" height="6.83" rx="1.23" fill="#ffffff" fill-opacity="0.130"/>
<rect x="346.59" y="30.59" width="6.83" height="6.83" rx="1.23" fill="#ffffff" fill-opacity="0.130"/>
<rect x="386.59" y="30.59" width="6.83" height="6.83" rx="1.23" fill="#ffffff" fill-opacity="0.130"/>
<rect x="186.59" y="-9.41" width="6.83" height="6.83" rx="1.23" fill="#ffffff" fill-opacity="0.130"/>
<rect x="226.59" y="-9.41" width="6.83" height="6.83" rx="1.23" fill="#ffffff" fill-opacity="0.130"/>
<rect x="266.59" y="-9.41" width="6.83" height="6.83" rx="1.23" fill="#ffffff" fill-opacity="0.130"/>
<rect x="306.59" y="-9.41" width="6.83" height="6.83" rx="1.23" fill="#ffffff" fill-opacity="0.130"/>
<rect x="346.59" y="-9.41" width="6.83" height="6.83" rx="1.23" fill="#ffffff" fill-opacity="0.130"/>
<rect x="386.59" y="-9.41" width="6.83" height="6.83" rx="1.23" fill="#ffffff" fill-opacity="0.130"/>
<rect x="186.59" y="-49.41" width="6.83" height="6.83" rx="1.23" fill="#ffffff" fill-opacity="0.130"/>
<rect x="226.59" y="-49.41" width="6.83" height="6.83" rx="1.23" fill="#ffffff" fill-opacity="0.130"/>
<rect x="266.59" y="-49.41" width="6.83" height="6.83" rx="1.23" fill="#ffffff" fill-opacity="0.130"/>
<rect x="306.59" y="-49.41" width="6.83" height="6.83" rx="1.23" fill="#ffffff" fill-opacity="0.130"/>
<rect x="346.59" y="-49.41" width="6.83" height="6.83" rx="1.23" fill="#ffffff" fill-opacity="0.130"/>
<rect x="386.59" y="-49.41" width="6.83" height="6.83" rx="1.23" fill="#ffffff" fill-opacity="0.130"/>
<rect x="186.59" y="-89.41" width="6.83" height="6.83" rx="1.23" fill="#ffffff" fill-opacity="0.130"/>
<rect x="226.59" y="-89.41" width="6.83" height="6.83" rx="1.23" fill="#ffffff" fill-opacity="0.130"/>
<rect x="266.59" y="-89.41" width="6.83" height="6.83" rx="1.23" fill="#ffffff" fill-opacity="0.130"/>
<rect x="306.59" y="-89.41" width="6.83" height="6.83" rx="1.23" fill="#ffffff" fill-opacity="0.130"/>
<rect x="346.59" y="-89.41" width="6.83" height="6.83" rx="1.23" fill="#ffffff" fill-opacity="0.130"/>
<rect x="386.59" y="-89.41" width="6.83" height="6.83" rx="1.23" fill="#ffffff" fill-opacity="0.130"/>
<rect x="183.56" y="110.15" width="7.10" height="7.10" rx="1.28" fill="#ffffff" fill-opacity="0.160"/>
<rect x="223.56" y="110.15" width="7.10" height="7.10" rx="1.28" fill="#ffffff" fill-opacity="0.160"/>
<rect x="263.56" y="110.15" width="7.10" height="7.10" rx="1.28" fill="#ffffff" fill-opacity="0.160"/>
<rect x="303.56" y="110.15" width="7.10" height="7.10" rx="1.28" fill="#ffffff" fill-opacity="0.160"/>
<rect x="343.56" y="110.15" width="7.10" height="7.10" rx="1.28" fill="#ffffff" fill-opacity="0.160"/>
<rect x="383.56" y="110.15" width="7.10" height="7.10" rx="1.28" fill="#ffffff" fill-opacity="0.160"/>
<rect x="183.56" y="70.15" width="7.10" height="7.10" rx="1.28" fill="#ffffff" fill-opacity="0.160"/>
<rect x="223.56" y="70.15" width="7.10" height="7.10" rx="1.28" fill="#ffffff" fill-opacity="0.160"/>
<rect x="263.56" y="70.15" width="7.10" height="7.10" rx="1.28" fill="#ffffff" fill-opacity="0.160"/>
<rect x="303.56" y="70.15" width="7.10" height="7.10" rx="1.28" fill="#ffffff" fill-opacity="0.160"/>
<rect x="343.56" y="70.15" width="7.10" height="7.10" rx="1.28" fill="#ffffff" fill-opacity="0.160"/>
<rect x="383.56" y="70.15" width="7.10" height="7.10" rx="1.28" fill="#ffffff" fill-opacity="0.160"/>
<rect x="183.56" y="30.15" width="7.10" height="7.10" rx="1.28" fill="#ffffff" fill-opacity="0.160"/>
<rect x="223.56" y="30.15" width="7.10" height="7.10" rx="1.28" fill="#ffffff" fill-opacity="0.160"/>
<rect x="263.56" y="30.15" width="7.10" height="7.10" rx="1.28" fill="#ffffff" fill-opacity="0.160"/>
<rect x="303.56" y="30.15" width="7.10" height="7.10" rx="1.28" fill="#ffffff" fill-opacity="0.160"/>
<rect x="343.56" y="30.15" width="7.10" height="7.10" rx="1.28" fill="#ffffff" fill-opacity="0.160"/>
<rect x="383.56" y="30.15" width="7.10" height="7.10" rx="1.28" fill="#ffffff" fill-opacity="0.160"/>
<rect x="183.56" y="-9.85" width="7.10" height="7.10" rx="1.28" fill="#ffffff" fill-opacity="0.160"/>
<rect x="223.56" y="-9.85" width="7.10" height="7.10" rx="1.28" fill="#ffffff" fill-opacity="0.160"/>
<rect x="263.56" y="-9.85" width="7.10" height="7.10" rx="1.28" fill="#ffffff" fill-opacity="0.160"/>
<rect x="303.56" y="-9.85" width="7.10" height="7.10" rx="1.28" fill="#ffffff" fill-opacity="0.160"/>
<rect x="343.56" y="-9.85" width="7.10" height="7.10" rx="1.28" fill="#ffffff" fill-opacity="0.160"/>
<rect x="383.56" y="-9.85" width="7.10" height="7.10" rx="1.28" fill="#ffffff" fill-opacity="0.160"/>
<rect x="183.56" y="-49.85" width="7.10" height="7.10" rx="1.28" fill="#ffffff" fill-opacity="0.160"/>
<rect x="223.56" y="-49.85" width="7.10" height="7.10" rx="1.28" fill="#ffffff" fill-opacity="0.160"/>
<rect x="263.56" y="-49.85" width="7.10" height="7.10" rx="1.28" fill="#ffffff" fill-opacity="0.160"/>
<rect x="303.56" y="-49.85" width="7.10" height="7.10" rx="1.28" fill="#ffffff" fill-opacity="0.160"/>
<rect x="343.56" y="-49.85" width="7.10" height="7.10" rx="1.28" fill="#ffffff" fill-opacity="0.160"/>
<rect x="383.56" y="-49.85" width="7.10" height="7.10" rx="1.28" fill="#ffffff" fill-opacity="0.160"/>
<rect x="183.56" y="-89.85" width="7.10" height="7.10" rx="1.28" fill="#ffffff" fill-opacity="0.160"/>
<rect x="223.56" y="-89.85" width="7.10" height="7.10" rx="1.28" fill="#ffffff" fill-opacity="0.160"/>
<rect x="263.56" y="-89.85" width="7.10" height="7.10" rx="1.28" fill="#ffffff" fill-opacity="0.160"/>
<rect x="303.56" y="-89.85" width="7.10" height="7.10" rx="1.28" fill="#ffffff" fill-opacity="0.160"/>
<rect x="343.56" y="-89.85" width="7.10" height="7.10" rx="1.28" fill="#ffffff" fill-opacity="0.160"/>
<rect x="383.56" y="-89.85" width="7.10" height="7.10" rx="1.28" fill="#ffffff" fill-opacity="0.160"/>
<rect x="180.62" y="109.11" width="7.38" height="7.38" rx="1.33" fill="#ffffff" fill-opacity="0.197"/>
<rect x="220.62" y="109.11" width="7.38" height="7.38" rx="1.33" fill="#ffffff" fill-opacity="0.197"/>
<rect x="260.62" y="109.11" width="7.38" height="7.38" rx="1.33" fill="#ffffff" fill-opacity="0.197"/>
<rect x="300.62" y="109.11" width="7.38" height="7.38" rx="1.33" fill="#ffffff" fill-opacity="0.197"/>
<rect x="340.62" y="109.11" width="7.38" height="7.38" rx="1.33" fill="#ffffff" fill-opacity="0.197"/>
<rect x="380.62" y="109.11" width="7.38" height="7.38" rx="1.33" fill="#ffffff" fill-opacity="0.197"/>
<rect x="180.62" y="69.11" width="7.38" height="7.38" rx="1.33" fill="#ffffff" fill-opacity="0.197"/>
<rect x="220.62" y="69.11" width="7.38" height="7.38" rx="1.33" fill="#ffffff" fill-opacity="0.197"/>
<rect x="260.62" y="69.11" width="7.38" height="7.38" rx="1.33" fill="#ffffff" fill-opacity="0.197"/>
<rect x="300.62" y="69.11" width="7.38" height="7.38" rx="1.33" fill="#ffffff" fill-opacity="0.197"/>
<rect x="340.62" y="69.11" width="7.38" height="7.38" rx="1.33" fill="#ffffff" fill-opacity="0.197"/>
<rect x="380.62" y="69.11" width="7.38" height="7.38" rx="1.33" fill="#ffffff" fill-opacity="0.197"/>
<rect x="180.62" y="29.11" width="7.38" height="7.38" rx="1.33" fill="#ffffff" fill-opacity="0.197"/>
<rect x="220.62" y="29.11" width="7.38" height="7.38" rx="1.33" fill="#ffffff" fill-opacity="0.197"/>
<rect x="260.62" y="29.11" width="7.38" height="7.38" rx="1.33" fill="#ffffff" fill-opacity="0.197"/>
<rect x="300.62" y="29.11" width="7.38" height="7.38" rx="1.33" fill="#ffffff" fill-opacity="0.197"/>
<rect x="340.62" y="29.11" width="7.38" height="7.38" rx="1.33" fill="#ffffff" fill-opacity="0.197"/>
<rect x="380.62" y="29.11" width="7.38" height="7.38" rx="1.33" fill="#ffffff" fill-opacity="0.197"/>
<rect x="180.62" y="-10.89" width="7.38" height="7.38" rx="1.33" fill="#ffffff" fill-opacity="0.197"/>
<rect x="220.62" y="-10.89" width="7.38" height="7.38" rx="1.33" fill="#ffffff" fill-opacity="0.197"/>
<rect x="260.62" y="-10.89" width="7.38" height="7.38" rx="1.33" fill="#ffffff" fill-opacity="0.197"/>
<rect x="300.62" y="-10.89" width="7.38" height="7.38" rx="1.33" fill="#ffffff" fill-opacity="0.197"/>
<rect x="340.62" y="-10.89" width="7.38" height="7.38" rx="1.33" fill="#ffffff" fill-opacity="0.197"/>
<rect x="380.62" y="-10.89" width="7.38" height="7.38" rx="1.33" fill="#ffffff" fill-opacity="0.197"/>
<rect x="180.62" y="-50.89" width="7.38" height="7.38" rx="1.33" fill="#ffffff" fill-opacity="0.197"/>
<rect x="220.62" y="-50.89" width="7.38" height="7.38" rx="1.33" fill="#ffffff" fill-opacity="0.197"/>
<rect x="260.62" y="-50.89" width="7.38" height="7.38" rx="1.33" fill="#ffffff" fill-opacity="0.197"/>
<rect x="300.62" y="-50.89" width="7.38" height="7.38" rx="1.33" fill="#ffffff" fill-opacity="0.197"/>
<rect x="340.62" y="-50.89" width="7.38" height="7.38" rx="1.33" fill="#ffffff" fill-opacity="0.197"/>
<rect x="380.62" y="-50.89" width="7.38" height="7.38" rx="1.33" fill="#ffffff" fill-opacity="0.197"/>
<rect x="180.62" y="-90.89" width="7.38" height="7.38" rx="1.33" fill="#ffffff" fill-opacity="0.197"/>
<rect x="220.62" y="-90.89" width="7.38" height="7.38" rx="1.33" fill="#ffffff" fill-opacity="0.197"/>
<rect x="260.62" y="-90.89" width="7.38" height="7.38" rx="1.33" fill="#ffffff" fill-opacity="0.197"/>
<rect x="300.62" y="-90.89" width="7.38" height="7.38" rx="1.33" fill="#ffffff" fill-opacity="0.197"/>
<rect x="340.62" y="-90.89" width="7.38" height="7.38" rx="1.33" fill="#ffffff" fill-opacity="0.197"/>
<rect x="380.62" y="-90.89" width="7.38" height="7.38" rx="1.33" fill="#ffffff" fill-opacity="0.197"/>
<rect x="177.93" y="107.50" width="7.68" height="7.68" rx="1.38" fill="#ffffff" fill-opacity="0.243"/>
<rect x="217.93" y="107.50" width="7.68" height="7.68" rx="1.38" fill="#ffffff" fill-opacity="0.243"/>
<rect x="257.93" y="107.50" width="7.68" height="7.68" rx="1.38" fill="#ffffff" fill-opacity="0.243"/>
<rect x="297.93" y="107.50" width="7.68" height="7.68" rx="1.38" fill="#ffffff" fill-opacity="0.243"/>
<rect x="337.93" y="107.50" width="7.68" height="7.68" rx="1.38" fill="#ffffff" fill-opacity="0.243"/>
<rect x="377.93" y="107.50" width="7.68" height="7.68" rx="1.38" fill="#ffffff" fill-opacity="0.243"/>
<rect x="177.93" y="67.50" width="7.68" height="7.68" rx="1.38" fill="#ffffff" fill-opacity="0.243"/>
<rect x="217.93" y="67.50" width="7.68" height="7.68" rx="1.38" fill="#ffffff" fill-opacity="0.243"/>
<rect x="257.93" y="67.50" width="7.68" height="7.68" rx="1.38" fill="#ffffff" fill-opacity="0.243"/>
<rect x="297.93" y="67.50" width="7.68" height="7.68" rx="1.38" fill="#ffffff" fill-opacity="0.243"/>
<rect x="337.93" y="67.50" width="7.68" height="7.68" rx="1.38" fill="#ffffff" fill-opacity="0.243"/>
<rect x="377.93" y="67.50" width="7.68" height="7.68" rx="1.38" fill="#ffffff" fill-opacity="0.243"/>
<rect x="177.93" y="27.50" width="7.68" height="7.68" rx="1.38" fill="#ffffff" fill-opacity="0.243"/>
<rect x="217.93" y="27.50" width="7.68" height="7.68" rx="1.38" fill="#ffffff" fill-opacity="0.243"/>
<rect x="257.93" y="27.50" width="7.68" height="7.68" rx="1.38" fill="#ffffff" fill-opacity="0.243"/>
<rect x="297.93" y="27.50" width="7.68" height="7.68" rx="1.38" fill="#ffffff" fill-opacity="0.243"/>
<rect x="337.93" y="27.50" width="7.68" height="7.68" rx="1.38" fill="#ffffff" fill-opacity="0.243"/>
<rect x="377.93" y="27.50" width="7.68" height="7.68" rx="1.38" fill="#ffffff" fill-opacity="0.243"/>
<rect x="177.93" y="-12.50" width="7.68" height="7.68" rx="1.38" fill="#ffffff" fill-opacity="0.243"/>
<rect x="217.93" y="-12.50" width="7.68" height="7.68" rx="1.38" fill="#ffffff" fill-opacity="0.243"/>
<rect x="257.93" y="-12.50" width="7.68" height="7.68" rx="1.38" fill="#ffffff" fill-opacity="0.243"/>
<rect x="297.93" y="-12.50" width="7.68" height="7.68" rx="1.38" fill="#ffffff" fill-opacity="0.243"/>
<rect x="337.93" y="-12.50" width="7.68" height="7.68" rx="1.38" fill="#ffffff" fill-opacity="0.243"/>
<rect x="377.93" y="-12.50" width="7.68" height="7.68" rx="1.38" fill="#ffffff" fill-opacity="0.243"/>
<rect x="177.93" y="-52.50" width="7.68" height="7.68" rx="1.38" fill="#ffffff" fill-opacity="0.243"/>
<rect x="217.93" y="-52.50" width="7.68" height="7.68" rx="1.38" fill="#ffffff" fill-opacity="0.243"/>
<rect x="257.93" y="-52.50" width="7.68" height="7.68" rx="1.38" fill="#ffffff" fill-opacity="0.243"/>
<rect x="297.93" y="-52.50" width="7.68" height="7.68" rx="1.38" fill="#ffffff" fill-opacity="0.243"/>
<rect x="337.93" y="-52.50" width="7.68" height="7.68" rx="1.38" fill="#ffffff" fill-opacity="0.243"/>
<rect x="377.93" y="-52.50" width="7.68" height="7.68" rx="1.38" fill="#ffffff" fill-opacity="0.243"/>
<rect x="177.93" y="-92.50" width="7.68" height="7.68" rx="1.38" fill="#ffffff" fill-opacity="0.243"/>
<rect x="217.93" y="-92.50" width="7.68" height="7.68" rx="1.38" fill="#ffffff" fill-opacity="0.243"/>
<rect x="257.93" y="-92.50" width="7.68" height="7.68" rx="1.38" fill="#ffffff" fill-opacity="0.243"/>
<rect x="297.93" y="-92.50" width="7.68" height="7.68" rx="1.38" fill="#ffffff" fill-opacity="0.243"/>
<rect x="337.93" y="-92.50" width="7.68" height="7.68" rx="1.38" fill="#ffffff" fill-opacity="0.243"/>
<rect x="377.93" y="-92.50" width="7.68" height="7.68" rx="1.38" fill="#ffffff" fill-opacity="0.243"/>
<rect x="175.59" y="105.38" width="7.98" height="7.98" rx="1.44" fill="#ffffff" fill-opacity="0.300"/>
<rect x="215.59" y="105.38" width="7.98" height="7.98" rx="1.44" fill="#ffffff" fill-opacity="0.300"/>
<rect x="255.59" y="105.38" width="7.98" height="7.98" rx="1.44" fill="#ffffff" fill-opacity="0.300"/>
<rect x="295.59" y="105.38" width="7.98" height="7.98" rx="1.44" fill="#ffffff" fill-opacity="0.300"/>
<rect x="335.59" y="105.38" width="7.98" height="7.98" rx="1.44" fill="#ffffff" fill-opacity="0.300"/>
<rect x="375.59" y="105.38" width="7.98" height="7.98" rx="1.44" fill="#ffffff" fill-opacity="0.300"/>
<rect x="175.59" y="65.38" width="7.98" height="7.98" rx="1.44" fill="#ffffff" fill-opacity="0.300"/>
<rect x="215.59" y="65.38" width="7.98" height="7.98" rx="1.44" fill="#ffffff" fill-opacity="0.300"/>
<rect x="255.59" y="65.38" width="7.98" height="7.98" rx="1.44" fill="#ffffff" fill-opacity="0.300"/>
<rect x="295.59" y="65.38" width="7.98" height="7.98" rx="1.44" fill="#ffffff" fill-opacity="0.300"/>
<rect x="335.59" y="65.38" width="7.98" height="7.98" rx="1.44" fill="#ffffff" fill-opacity="0.300"/>
<rect x="375.59" y="65.38" width="7.98" height="7.98" rx="1.44" fill="#ffffff" fill-opacity="0.300"/>
<rect x="175.59" y="25.38" width="7.98" height="7.98" rx="1.44" fill="#ffffff" fill-opacity="0.300"/>
<rect x="215.59" y="25.38" width="7.98" height="7.98" rx="1.44" fill="#ffffff" fill-opacity="0.300"/>
<rect x="255.59" y="25.38" width="7.98" height="7.98" rx="1.44" fill="#ffffff" fill-opacity="0.300"/>
<rect x="295.59" y="25.38" width="7.98" height="7.98" rx="1.44" fill="#ffffff" fill-opacity="0.300"/>
<rect x="335.59" y="25.38" width="7.98" height="7.98" rx="1.44" fill="#ffffff" fill-opacity="0.300"/>
<rect x="375.59" y="25.38" width="7.98" height="7.98" rx="1.44" fill="#ffffff" fill-opacity="0.300"/>
<rect x="175.59" y="-14.62" width="7.98" height="7.98" rx="1.44" fill="#ffffff" fill-opacity="0.300"/>
<rect x="215.59" y="-14.62" width="7.98" height="7.98" rx="1.44" fill="#ffffff" fill-opacity="0.300"/>
<rect x="255.59" y="-14.62" width="7.98" height="7.98" rx="1.44" fill="#ffffff" fill-opacity="0.300"/>
<rect x="295.59" y="-14.62" width="7.98" height="7.98" rx="1.44" fill="#ffffff" fill-opacity="0.300"/>
<rect x="335.59" y="-14.62" width="7.98" height="7.98" rx="1.44" fill="#ffffff" fill-opacity="0.300"/>
<rect x="375.59" y="-14.62" width="7.98" height="7.98" rx="1.44" fill="#ffffff" fill-opacity="0.300"/>
<rect x="175.59" y="-54.62" width="7.98" height="7.98" rx="1.44" fill="#ffffff" fill-opacity="0.300"/>
<rect x="215.59" y="-54.62" width="7.98" height="7.98" rx="1.44" fill="#ffffff" fill-opacity="0.300"/>
<rect x="255.59" y="-54.62" width="7.98" height="7.98" rx="1.44" fill="#ffffff" fill-opacity="0.300"/>
<rect x="295.59" y="-54.62" width="7.98" height="7.98" rx="1.44" fill="#ffffff" fill-opacity="0.300"/>
<rect x="335.59" y="-54.62" width="7.98" height="7.98" rx="1.44" fill="#ffffff" fill-opacity="0.300"/>
<rect x="375.59" y="-54.62" width="7.98" height="7.98" rx="1.44" fill="#ffffff" fill-opacity="0.300"/>
<rect x="175.59" y="-94.62" width="7.98" height="7.98" rx="1.44" fill="#ffffff" fill-opacity="0.300"/>
<rect x="215.59" y="-94.62" width="7.98" height="7.98" rx="1.44" fill="#ffffff" fill-opacity="0.300"/>
<rect x="255.59" y="-94.62" width="7.98" height="7.98" rx="1.44" fill="#ffffff" fill-opacity="0.300"/>
<rect x="295.59" y="-94.62" width="7.98" height="7.98" rx="1.44" fill="#ffffff" fill-opacity="0.300"/>
<rect x="335.59" y="-94.62" width="7.98" height="7.98" rx="1.44" fill="#ffffff" fill-opacity="0.300"/>
<rect x="375.59" y="-94.62" width="7.98" height="7.98" rx="1.44" fill="#ffffff" fill-opacity="0.300"/>
<rect x="173.72" y="102.85" width="8.30" height="8.30" rx="1.49" fill="#ffffff" fill-opacity="0.370"/>
<rect x="213.72" y="102.85" width="8.30" height="8.30" rx="1.49" fill="#ffffff" fill-opacity="0.370"/>
<rect x="253.72" y="102.85" width="8.30" height="8.30" rx="1.49" fill="#ffffff" fill-opacity="0.370"/>
<rect x="293.72" y="102.85" width="8.30" height="8.30" rx="1.49" fill="#ffffff" fill-opacity="0.370"/>
<rect x="333.72" y="102.85" width="8.30" height="8.30" rx="1.49" fill="#ffffff" fill-opacity="0.370"/>
<rect x="373.72" y="102.85" width="8.30" height="8.30" rx="1.49" fill="#ffffff" fill-opacity="0.370"/>
<rect x="173.72" y="62.85" width="8.30" height="8.30" rx="1.49" fill="#ffffff" fill-opacity="0.370"/>
<rect x="213.72" y="62.85" width="8.30" height="8.30" rx="1.49" fill="#ffffff" fill-opacity="0.370"/>
<rect x="253.72" y="62.85" width="8.30" height="8.30" rx="1.49" fill="#ffffff" fill-opacity="0.370"/>
<rect x="293.72" y="62.85" width="8.30" height="8.30" rx="1.49" fill="#ffffff" fill-opacity="0.370"/>
<rect x="333.72" y="62.85" width="8.30" height="8.30" rx="1.49" fill="#ffffff" fill-opacity="0.370"/>
<rect x="373.72" y="62.85" width="8.30" height="8.30" rx="1.49" fill="#ffffff" fill-opacity="0.370"/>
<rect x="173.72" y="22.85" width="8.30" height="8.30" rx="1.49" fill="#ffffff" fill-opacity="0.370"/>
<rect x="213.72" y="22.85" width="8.30" height="8.30" rx="1.49" fill="#ffffff" fill-opacity="0.370"/>
<rect x="253.72" y="22.85" width="8.30" height="8.30" rx="1.49" fill="#ffffff" fill-opacity="0.370"/>
<rect x="293.72" y="22.85" width="8.30" height="8.30" rx="1.49" fill="#ffffff" fill-opacity="0.370"/>
<rect x="333.72" y="22.85" width="8.30" height="8.30" rx="1.49" fill="#ffffff" fill-opacity="0.370"/>
<rect x="373.72" y="22.85" width="8.30" height="8.30" rx="1.49" fill="#ffffff" fill-opacity="0.370"/>
<rect x="173.72" y="-17.15" width="8.30" height="8.30" rx="1.49" fill="#ffffff" fill-opacity="0.370"/>
<rect x="213.72" y="-17.15" width="8.30" height="8.30" rx="1.49" fill="#ffffff" fill-opacity="0.370"/>
<rect x="253.72" y="-17.15" width="8.30" height="8.30" rx="1.49" fill="#ffffff" fill-opacity="0.370"/>
<rect x="293.72" y="-17.15" width="8.30" height="8.30" rx="1.49" fill="#ffffff" fill-opacity="0.370"/>
<rect x="333.72" y="-17.15" width="8.30" height="8.30" rx="1.49" fill="#ffffff" fill-opacity="0.370"/>
<rect x="373.72" y="-17.15" width="8.30" height="8.30" rx="1.49" fill="#ffffff" fill-opacity="0.370"/>
<rect x="173.72" y="-57.15" width="8.30" height="8.30" rx="1.49" fill="#ffffff" fill-opacity="0.370"/>
<rect x="213.72" y="-57.15" width="8.30" height="8.30" rx="1.49" fill="#ffffff" fill-opacity="0.370"/>
<rect x="253.72" y="-57.15" width="8.30" height="8.30" rx="1.49" fill="#ffffff" fill-opacity="0.370"/>
<rect x="293.72" y="-57.15" width="8.30" height="8.30" rx="1.49" fill="#ffffff" fill-opacity="0.370"/>
<rect x="333.72" y="-57.15" width="8.30" height="8.30" rx="1.49" fill="#ffffff" fill-opacity="0.370"/>
<rect x="373.72" y="-57.15" width="8.30" height="8.30" rx="1.49" fill="#ffffff" fill-opacity="0.370"/>
<rect x="173.72" y="-97.15" width="8.30" height="8.30" rx="1.49" fill="#ffffff" fill-opacity="0.370"/>
<rect x="213.72" y="-97.15" width="8.30" height="8.30" rx="1.49" fill="#ffffff" fill-opacity="0.370"/>
<rect x="253.72" y="-97.15" width="8.30" height="8.30" rx="1.49" fill="#ffffff" fill-opacity="0.370"/>
<rect x="293.72" y="-97.15" width="8.30" height="8.30" rx="1.49" fill="#ffffff" fill-opacity="0.370"/>
<rect x="333.72" y="-97.15" width="8.30" height="8.30" rx="1.49" fill="#ffffff" fill-opacity="0.370"/>
<rect x="373.72" y="-97.15" width="8.30" height="8.30" rx="1.49" fill="#ffffff" fill-opacity="0.370"/>
<rect x="172.36" y="100.00" width="8.63" height="8.63" rx="1.55" fill="#ffffff" fill-opacity="0.456"/>
<rect x="212.36" y="100.00" width="8.63" height="8.63" rx="1.55" fill="#ffffff" fill-opacity="0.456"/>
<rect x="252.36" y="100.00" width="8.63" height="8.63" rx="1.55" fill="#ffffff" fill-opacity="0.456"/>
<rect x="292.36" y="100.00" width="8.63" height="8.63" rx="1.55" fill="#ffffff" fill-opacity="0.456"/>
<rect x="332.36" y="100.00" width="8.63" height="8.63" rx="1.55" fill="#ffffff" fill-opacity="0.456"/>
<rect x="372.36" y="100.00" width="8.63" height="8.63" rx="1.55" fill="#ffffff" fill-opacity="0.456"/>
<rect x="172.36" y="60.00" width="8.63" height="8.63" rx="1.55" fill="#ffffff" fill-opacity="0.456"/>
<rect x="212.36" y="60.00" width="8.63" height="8.63" rx="1.55" fill="#ffffff" fill-opacity="0.456"/>
<rect x="252.36" y="60.00" width="8.63" height="8.63" rx="1.55" fill="#ffffff" fill-opacity="0.456"/>
<rect x="292.36" y="60.00" width="8.63" height="8.63" rx="1.55" fill="#ffffff" fill-opacity="0.456"/>
<rect x="332.36" y="60.00" width="8.63" height="8.63" rx="1.55" fill="#ffffff" fill-opacity="0.456"/>
<rect x="372.36" y="60.00" width="8.63" height="8.63" rx="1.55" fill="#ffffff" fill-opacity="0.456"/>
<rect x="172.36" y="20.00" width="8.63" height="8.63" rx="1.55" fill="#ffffff" fill-opacity="0.456"/>
<rect x="212.36" y="20.00" width="8.63" height="8.63" rx="1.55" fill="#ffffff" fill-opacity="0.456"/>
<rect x="252.36" y="20.00" width="8.63" height="8.63" rx="1.55" fill="#ffffff" fill-opacity="0.456"/>
<rect x="292.36" y="20.00" width="8.63" height="8.63" rx="1.55" fill="#ffffff" fill-opacity="0.456"/>
<rect x="332.36" y="20.00" width="8.63" height="8.63" rx="1.55" fill="#ffffff" fill-opacity="0.456"/>
<rect x="372.36" y="20.00" width="8.63" height="8.63" rx="1.55" fill="#ffffff" fill-opacity="0.456"/>
<rect x="172.36" y="-20.00" width="8.63" height="8.63" rx="1.55" fill="#ffffff" fill-opacity="0.456"/>
<rect x="212.36" y="-20.00" width="8.63" height="8.63" rx="1.55" fill="#ffffff" fill-opacity="0.456"/>
<rect x="252.36" y="-20.00" width="8.63" height="8.63" rx="1.55" fill="#ffffff" fill-opacity="0.456"/>
<rect x="292.36" y="-20.00" width="8.63" height="8.63" rx="1.55" fill="#ffffff" fill-opacity="0.456"/>
<rect x="332.36" y="-20.00" width="8.63" height="8.63" rx="1.55" fill="#ffffff" fill-opacity="0.456"/>
<rect x="372.36" y="-20.00" width="8.63" height="8.63" rx="1.55" fill="#ffffff" fill-opacity="0.456"/>
<rect x="172.36" y="-60.00" width="8.63" height="8.63" rx="1.55" fill="#ffffff" fill-opacity="0.456"/>
<rect x="212.36" y="-60.00" width="8.63" height="8.63" rx="1.55" fill="#ffffff" fill-opacity="0.456"/>
<rect x="252.36" y="-60.00" width="8.63" height="8.63" rx="1.55" fill="#ffffff" fill-opacity="0.456"/>
<rect x="292.36" y="-60.00" width="8.63" height="8.63" rx="1.55" fill="#ffffff" fill-opacity="0.456"/>
<rect x="332.36" y="-60.00" width="8.63" height="8.63" rx="1.55" fill="#ffffff" fill-opacity="0.456"/>
<rect x="372.36" y="-60.00" width="8.63" height="8.63" rx="1.55" fill="#ffffff" fill-opacity="0.456"/>
<rect x="172.36" y="-100.00" width="8.63" height="8.63" rx="1.55" fill="#ffffff" fill-opacity="0.456"/>
<rect x="212.36" y="-100.00" width="8.63" height="8.63" rx="1.55" fill="#ffffff" fill-opacity="0.456"/>
<rect x="252.36" y="-100.00" width="8.63" height="8.63" rx="1.55" fill="#ffffff" fill-opacity="0.456"/>
<rect x="292.36" y="-100.00" width="8.63" height="8.63" rx="1.55" fill="#ffffff" fill-opacity="0.456"/>
<rect x="332.36" y="-100.00" width="8.63" height="8.63" rx="1.55" fill="#ffffff" fill-opacity="0.456"/>
<rect x="372.36" y="-100.00" width="8.63" height="8.63" rx="1.55" fill="#ffffff" fill-opacity="0.456"/>
<rect x="171.59" y="96.96" width="8.98" height="8.98" rx="1.62" fill="#ffffff" fill-opacity="0.562"/>
<rect x="211.59" y="96.96" width="8.98" height="8.98" rx="1.62" fill="#ffffff" fill-opacity="0.562"/>
<rect x="251.59" y="96.96" width="8.98" height="8.98" rx="1.62" fill="#ffffff" fill-opacity="0.562"/>
<rect x="291.59" y="96.96" width="8.98" height="8.98" rx="1.62" fill="#ffffff" fill-opacity="0.562"/>
<rect x="331.59" y="96.96" width="8.98" height="8.98" rx="1.62" fill="#ffffff" fill-opacity="0.562"/>
<rect x="371.59" y="96.96" width="8.98" height="8.98" rx="1.62" fill="#ffffff" fill-opacity="0.562"/>
<rect x="171.59" y="56.96" width="8.98" height="8.98" rx="1.62" fill="#ffffff" fill-opacity="0.562"/>
<rect x="211.59" y="56.96" width="8.98" height="8.98" rx="1.62" fill="#ffffff" fill-opacity="0.562"/>
<rect x="251.59" y="56.96" width="8.98" height="8.98" rx="1.62" fill="#ffffff" fill-opacity="0.562"/>
<rect x="291.59" y="56.96" width="8.98" height="8.98" rx="1.62" fill="#ffffff" fill-opacity="0.562"/>
<rect x="331.59" y="56.96" width="8.98" height="8.98" rx="1.62" fill="#ffffff" fill-opacity="0.562"/>
<rect x="371.59" y="56.96" width="8.98" height="8.98" rx="1.62" fill="#ffffff" fill-opacity="0.562"/>
<rect x="171.59" y="16.96" width="8.98" height="8.98" rx="1.62" fill="#ffffff" fill-opacity="0.562"/>
<rect x="211.59" y="16.96" width="8.98" height="8.98" rx="1.62" fill="#ffffff" fill-opacity="0.562"/>
<rect x="251.59" y="16.96" width="8.98" height="8.98" rx="1.62" fill="#ffffff" fill-opacity="0.562"/>
<rect x="291.59" y="16.96" width="8.98" height="8.98" rx="1.62" fill="#ffffff" fill-opacity="0.562"/>
<rect x="331.59" y="16.96" width="8.98" height="8.98" rx="1.62" fill="#ffffff" fill-opacity="0.562"/>
<rect x="371.59" y="16.96" width="8.98" height="8.98" rx="1.62" fill="#ffffff" fill-opacity="0.562"/>
<rect x="171.59" y="-23.04" width="8.98" height="8.98" rx="1.62" fill="#ffffff" fill-opacity="0.562"/>
<rect x="211.59" y="-23.04" width="8.98" height="8.98" rx="1.62" fill="#ffffff" fill-opacity="0.562"/>
<rect x="251.59" y="-23.04" width="8.98" height="8.98" rx="1.62" fill="#ffffff" fill-opacity="0.562"/>
<rect x="291.59" y="-23.04" width="8.98" height="8.98" rx="1.62" fill="#ffffff" fill-opacity="0.562"/>
<rect x="331.59" y="-23.04" width="8.98" height="8.98" rx="1.62" fill="#ffffff" fill-opacity="0.562"/>
<rect x="371.59" y="-23.04" width="8.98" height="8.98" rx="1.62" fill="#ffffff" fill-opacity="0.562"/>
<rect x="171.59" y="-63.04" width="8.98" height="8.98" rx="1.62" fill="#ffffff" fill-opacity="0.562"/>
<rect x="211.59" y="-63.04" width="8.98" height="8.98" rx="1.62" fill="#ffffff" fill-opacity="0.562"/>
<rect x="251.59" y="-63.04" width="8.98" height="8.98" rx="1.62" fill="#ffffff" fill-opacity="0.562"/>
<rect x="291.59" y="-63.04" width="8.98" height="8.98" rx="1.62" fill="#ffffff" fill-opacity="0.562"/>
<rect x="331.59" y="-63.04" width="8.98" height="8.98" rx="1.62" fill="#ffffff" fill-opacity="0.562"/>
<rect x="371.59" y="-63.04" width="8.98" height="8.98" rx="1.62" fill="#ffffff" fill-opacity="0.562"/>
<rect x="171.59" y="-103.04" width="8.98" height="8.98" rx="1.62" fill="#ffffff" fill-opacity="0.562"/>
<rect x="211.59" y="-103.04" width="8.98" height="8.98" rx="1.62" fill="#ffffff" fill-opacity="0.562"/>
<rect x="251.59" y="-103.04" width="8.98" height="8.98" rx="1.62" fill="#ffffff" fill-opacity="0.562"/>
<rect x="291.59" y="-103.04" width="8.98" height="8.98" rx="1.62" fill="#ffffff" fill-opacity="0.562"/>
<rect x="331.59" y="-103.04" width="8.98" height="8.98" rx="1.62" fill="#ffffff" fill-opacity="0.562"/>
<rect x="371.59" y="-103.04" width="8.98" height="8.98" rx="1.62" fill="#ffffff" fill-opacity="0.562"/>
<rect x="171.41" y="93.88" width="9.34" height="9.34" rx="1.68" fill="#ffffff" fill-opacity="0.693"/>
<rect x="211.41" y="93.88" width="9.34" height="9.34" rx="1.68" fill="#ffffff" fill-opacity="0.693"/>
<rect x="251.41" y="93.88" width="9.34" height="9.34" rx="1.68" fill="#ffffff" fill-opacity="0.693"/>
<rect x="291.41" y="93.88" width="9.34" height="9.34" rx="1.68" fill="#ffffff" fill-opacity="0.693"/>
<rect x="331.41" y="93.88" width="9.34" height="9.34" rx="1.68" fill="#ffffff" fill-opacity="0.693"/>
<rect x="371.41" y="93.88" width="9.34" height="9.34" rx="1.68" fill="#ffffff" fill-opacity="0.693"/>
<rect x="171.41" y="53.88" width="9.34" height="9.34" rx="1.68" fill="#ffffff" fill-opacity="0.693"/>
<rect x="211.41" y="53.88" width="9.34" height="9.34" rx="1.68" fill="#ffffff" fill-opacity="0.693"/>
<rect x="251.41" y="53.88" width="9.34" height="9.34" rx="1.68" fill="#ffffff" fill-opacity="0.693"/>
<rect x="291.41" y="53.88" width="9.34" height="9.34" rx="1.68" fill="#ffffff" fill-opacity="0.693"/>
<rect x="331.41" y="53.88" width="9.34" height="9.34" rx="1.68" fill="#ffffff" fill-opacity="0.693"/>
<rect x="371.41" y="53.88" width="9.34" height="9.34" rx="1.68" fill="#ffffff" fill-opacity="0.693"/>
<rect x="171.41" y="13.88" width="9.34" height="9.34" rx="1.68" fill="#ffffff" fill-opacity="0.693"/>
<rect x="211.41" y="13.88" width="9.34" height="9.34" rx="1.68" fill="#ffffff" fill-opacity="0.693"/>
<rect x="251.41" y="13.88" width="9.34" height="9.34" rx="1.68" fill="#ffffff" fill-opacity="0.693"/>
<rect x="291.41" y="13.88" width="9.34" height="9.34" rx="1.68" fill="#ffffff" fill-opacity="0.693"/>
<rect x="331.41" y="13.88" width="9.34" height="9.34" rx="1.68" fill="#ffffff" fill-opacity="0.693"/>
<rect x="371.41" y="13.88" width="9.34" height="9.34" rx="1.68" fill="#ffffff" fill-opacity="0.693"/>
<rect x="171.41" y="-26.12" width="9.34" height="9.34" rx="1.68" fill="#ffffff" fill-opacity="0.693"/>
<rect x="211.41" y="-26.12" width="9.34" height="9.34" rx="1.68" fill="#ffffff" fill-opacity="0.693"/>
<rect x="251.41" y="-26.12" width="9.34" height="9.34" rx="1.68" fill="#ffffff" fill-opacity="0.693"/>
<rect x="291.41" y="-26.12" width="9.34" height="9.34" rx="1.68" fill="#ffffff" fill-opacity="0.693"/>
<rect x="331.41" y="-26.12" width="9.34" height="9.34" rx="1.68" fill="#ffffff" fill-opacity="0.693"/>
<rect x="371.41" y="-26.12" width="9.34" height="9.34" rx="1.68" fill="#ffffff" fill-opacity="0.693"/>
<rect x="171.41" y="-66.12" width="9.34" height="9.34" rx="1.68" fill="#ffffff" fill-opacity="0.693"/>
<rect x="211.41" y="-66.12" width="9.34" height="9.34" rx="1.68" fill="#ffffff" fill-opacity="0.693"/>
<rect x="251.41" y="-66.12" width="9.34" height="9.34" rx="1.68" fill="#ffffff" fill-opacity="0.693"/>
<rect x="291.41" y="-66.12" width="9.34" height="9.34" rx="1.68" fill="#ffffff" fill-opacity="0.693"/>
<rect x="331.41" y="-66.12" width="9.34" height="9.34" rx="1.68" fill="#ffffff" fill-opacity="0.693"/>
<rect x="371.41" y="-66.12" width="9.34" height="9.34" rx="1.68" fill="#ffffff" fill-opacity="0.693"/>
<rect x="171.41" y="-106.12" width="9.34" height="9.34" rx="1.68" fill="#ffffff" fill-opacity="0.693"/>
<rect x="211.41" y="-106.12" width="9.34" height="9.34" rx="1.68" fill="#ffffff" fill-opacity="0.693"/>
<rect x="251.41" y="-106.12" width="9.34" height="9.34" rx="1.68" fill="#ffffff" fill-opacity="0.693"/>
<rect x="291.41" y="-106.12" width="9.34" height="9.34" rx="1.68" fill="#ffffff" fill-opacity="0.693"/>
<rect x="331.41" y="-106.12" width="9.34" height="9.34" rx="1.68" fill="#ffffff" fill-opacity="0.693"/>
<rect x="371.41" y="-106.12" width="9.34" height="9.34" rx="1.68" fill="#ffffff" fill-opacity="0.693"/>
<rect x="171.83" y="90.83" width="9.71" height="9.71" rx="1.75" fill="#ffffff" fill-opacity="0.855"/>
<rect x="211.83" y="90.83" width="9.71" height="9.71" rx="1.75" fill="#ffffff" fill-opacity="0.855"/>
<rect x="251.83" y="90.83" width="9.71" height="9.71" rx="1.75" fill="#ffffff" fill-opacity="0.855"/>
<rect x="291.83" y="90.83" width="9.71" height="9.71" rx="1.75" fill="#ffffff" fill-opacity="0.855"/>
<rect x="331.83" y="90.83" width="9.71" height="9.71" rx="1.75" fill="#ffffff" fill-opacity="0.855"/>
<rect x="371.83" y="90.83" width="9.71" height="9.71" rx="1.75" fill="#ffffff" fill-opacity="0.855"/>
<rect x="171.83" y="50.83" width="9.71" height="9.71" rx="1.75" fill="#ffffff" fill-opacity="0.855"/>
<rect x="211.83" y="50.83" width="9.71" height="9.71" rx="1.75" fill="#ffffff" fill-opacity="0.855"/>
<rect x="251.83" y="50.83" width="9.71" height="9.71" rx="1.75" fill="#ffffff" fill-opacity="0.855"/>
<rect x="291.83" y="50.83" width="9.71" height="9.71" rx="1.75" fill="#ffffff" fill-opacity="0.855"/>
<rect x="331.83" y="50.83" width="9.71" height="9.71" rx="1.75" fill="#ffffff" fill-opacity="0.855"/>
<rect x="371.83" y="50.83" width="9.71" height="9.71" rx="1.75" fill="#ffffff" fill-opacity="0.855"/>
<rect x="171.83" y="10.83" width="9.71" height="9.71" rx="1.75" fill="#ffffff" fill-opacity="0.855"/>
<rect x="211.83" y="10.83" width="9.71" height="9.71" rx="1.75" fill="#ffffff" fill-opacity="0.855"/>
<rect x="251.83" y="10.83" width="9.71" height="9.71" rx="1.75" fill="#ffffff" fill-opacity="0.855"/>
<rect x="291.83" y="10.83" width="9.71" height="9.71" rx="1.75" fill="#ffffff" fill-opacity="0.855"/>
<rect x="331.83" y="10.83" width="9.71" height="9.71" rx="1.75" fill="#ffffff" fill-opacity="0.855"/>
<rect x="371.83" y="10.83" width="9.71" height="9.71" rx="1.75" fill="#ffffff" fill-opacity="0.855"/>
<rect x="171.83" y="-29.17" width="9.71" height="9.71" rx="1.75" fill="#ffffff" fill-opacity="0.855"/>
<rect x="211.83" y="-29.17" width="9.71" height="9.71" rx="1.75" fill="#ffffff" fill-opacity="0.855"/>
<rect x="251.83" y="-29.17" width="9.71" height="9.71" rx="1.75" fill="#ffffff" fill-opacity="0.855"/>
<rect x="291.83" y="-29.17" width="9.71" height="9.71" rx="1.75" fill="#ffffff" fill-opacity="0.855"/>
<rect x="331.83" y="-29.17" width="9.71" height="9.71" rx="1.75" fill="#ffffff" fill-opacity="0.855"/>
<rect x="371.83" y="-29.17" width="9.71" height="9.71" rx="1.75" fill="#ffffff" fill-opacity="0.855"/>
<rect x="171.83" y="-69.17" width="9.71" height="9.71" rx="1.75" fill="#ffffff" fill-opacity="0.855"/>
<rect x="211.83" y="-69.17" width="9.71" height="9.71" rx="1.75" fill="#ffffff" fill-opacity="0.855"/>
<rect x="251.83" y="-69.17" width="9.71" height="9.71" rx="1.75" fill="#ffffff" fill-opacity="0.855"/>
<rect x="291.83" y="-69.17" width="9.71" height="9.71" rx="1.75" fill="#ffffff" fill-opacity="0.855"/>
<rect x="331.83" y="-69.17" width="9.71" height="9.71" rx="1.75" fill="#ffffff" fill-opacity="0.855"/>
<rect x="371.83" y="-69.17" width="9.71" height="9.71" rx="1.75" fill="#ffffff" fill-opacity="0.855"/>
<rect x="171.83" y="-109.17" width="9.71" height="9.71" rx="1.75" fill="#ffffff" fill-opacity="0.855"/>
<rect x="211.83" y="-109.17" width="9.71" height="9.71" rx="1.75" fill="#ffffff" fill-opacity="0.855"/>
<rect x="251.83" y="-109.17" width="9.71" height="9.71" rx="1.75" fill="#ffffff" fill-opacity="0.855"/>
<rect x="291.83" y="-109.17" width="9.71" height="9.71" rx="1.75" fill="#ffffff" fill-opacity="0.855"/>
<rect x="331.83" y="-109.17" width="9.71" height="9.71" rx="1.75" fill="#ffffff" fill-opacity="0.855"/>
<rect x="371.83" y="-109.17" width="9.71" height="9.71" rx="1.75" fill="#ffffff" fill-opacity="0.855"/>
<rect x="172.52" y="88.65" width="10.00" height="10.00" rx="1.80" fill="#ffffff" fill-opacity="1.000"/>
<rect x="212.52" y="88.65" width="10.00" height="10.00" rx="1.80" fill="#ffffff" fill-opacity="1.000"/>
<rect x="252.52" y="88.65" width="10.00" height="10.00" rx="1.80" fill="#ffffff" fill-opacity="1.000"/>
<rect x="292.52" y="88.65" width="10.00" height="10.00" rx="1.80" fill="#ffffff" fill-opacity="1.000"/>
<rect x="332.52" y="88.65" width="10.00" height="10.00" rx="1.80" fill="#ffffff" fill-opacity="1.000"/>
<rect x="372.52" y="88.65" width="10.00" height="10.00" rx="1.80" fill="#ffffff" fill-opacity="1.000"/>
<rect x="172.52" y="48.65" width="10.00" height="10.00" rx="1.80" fill="#ffffff" fill-opacity="1.000"/>
<rect x="212.52" y="48.65" width="10.00" height="10.00" rx="1.80" fill="#ffffff" fill-opacity="1.000"/>
<rect x="252.52" y="48.65" width="10.00" height="10.00" rx="1.80" fill="#ffffff" fill-opacity="1.000"/>
<rect x="292.52" y="48.65" width="10.00" height="10.00" rx="1.80" fill="#ffffff" fill-opacity="1.000"/>
<rect x="332.52" y="48.65" width="10.00" height="10.00" rx="1.80" fill="#ffffff" fill-opacity="1.000"/>
<rect x="372.52" y="48.65" width="10.00" height="10.00" rx="1.80" fill="#ffffff" fill-opacity="1.000"/>
<rect x="172.52" y="8.65" width="10.00" height="10.00" rx="1.80" fill="#ffffff" fill-opacity="1.000"/>
<rect x="212.52" y="8.65" width="10.00" height="10.00" rx="1.80" fill="#ffffff" fill-opacity="1.000"/>
<rect x="252.52" y="8.65" width="10.00" height="10.00" rx="1.80" fill="#ffffff" fill-opacity="1.000"/>
<rect x="292.52" y="8.65" width="10.00" height="10.00" rx="1.80" fill="#ffffff" fill-opacity="1.000"/>
<rect x="332.52" y="8.65" width="10.00" height="10.00" rx="1.80" fill="#ffffff" fill-opacity="1.000"/>
<rect x="372.52" y="8.65" width="10.00" height="10.00" rx="1.80" fill="#ffffff" fill-opacity="1.000"/>
<rect x="172.52" y="-31.35" width="10.00" height="10.00" rx="1.80" fill="#ffffff" fill-opacity="1.000"/>
<rect x="212.52" y="-31.35" width="10.00" height="10.00" rx="1.80" fill="#ffffff" fill-opacity="1.000"/>
<rect x="252.52" y="-31.35" width="10.00" height="10.00" rx="1.80" fill="#ffffff" fill-opacity="1.000"/>
<rect x="292.52" y="-31.35" width="10.00" height="10.00" rx="1.80" fill="#ffffff" fill-opacity="1.000"/>
<rect x="332.52" y="-31.35" width="10.00" height="10.00" rx="1.80" fill="#ffffff" fill-opacity="1.000"/>
<rect x="372.52" y="-31.35" width="10.00" height="10.00" rx="1.80" fill="#ffffff" fill-opacity="1.000"/>
<rect x="172.52" y="-71.35" width="10.00" height="10.00" rx="1.80" fill="#ffffff" fill-opacity="1.000"/>
<rect x="212.52" y="-71.35" width="10.00" height="10.00" rx="1.80" fill="#ffffff" fill-opacity="1.000"/>
<rect x="252.52" y="-71.35" width="10.00" height="10.00" rx="1.80" fill="#ffffff" fill-opacity="1.000"/>
<rect x="292.52" y="-71.35" width="10.00" height="10.00" rx="1.80" fill="#ffffff" fill-opacity="1.000"/>
<rect x="332.52" y="-71.35" width="10.00" height="10.00" rx="1.80" fill="#ffffff" fill-opacity="1.000"/>
<rect x="372.52" y="-71.35" width="10.00" height="10.00" rx="1.80" fill="#ffffff" fill-opacity="1.000"/>
<rect x="172.52" y="-111.35" width="10.00" height="10.00" rx="1.80" fill="#ffffff" fill-opacity="1.000"/>
<rect x="212.52" y="-111.35" width="10.00" height="10.00" rx="1.80" fill="#ffffff" fill-opacity="1.000"/>
<rect x="252.52" y="-111.35" width="10.00" height="10.00" rx="1.80" fill="#ffffff" fill-opacity="1.000"/>
<rect x="292.52" y="-111.35" width="10.00" height="10.00" rx="1.80" fill="#ffffff" fill-opacity="1.000"/>
<rect x="332.52" y="-111.35" width="10.00" height="10.00" rx="1.80" fill="#ffffff" fill-opacity="1.000"/>
<rect x="372.52" y="-111.35" width="10.00" height="10.00" rx="1.80" fill="#ffffff" fill-opacity="1.000"/>
</svg>
