<svg xmlns="http://www.w3.org/2000/svg" viewBox="-268.80 -178.80 537.60 207.60" width="340" height="131" role="img">
<rect x="-268.80" y="-178.80" width="537.60" height="207.60" rx="7.98" fill="#141317"/>
<circle cx="-240.00" cy="-0.00" r="4.51" fill="#c9a6ff"/>
<circle cx="-228.00" cy="-0.01" r="4.51" fill="#c9a6ff"/>
<circle cx="-216.00" cy="-0.08" r="4.51" fill="#c9a6ff"/>
<circle cx="-204.00" cy="-0.25" r="4.51" fill="#c9a6ff"/>
<circle cx="-192.00" cy="-0.60" r="4.51" fill="#c9a6ff"/>
<circle cx="-180.00" cy="-1.17" r="4.51" fill="#c9a6ff"/>
<circle cx="-168.00" cy="-2.03" r="4.51" fill="#c9a6ff"/>
<circle cx="-156.00" cy="-3.22" r="4.51" fill="#c9a6ff"/>
<circle cx="-144.00" cy="-4.80" r="4.51" fill="#c9a6ff"/>
<circle cx="-132.00" cy="-6.83" r="4.51" fill="#c9a6ff"/>
<circle cx="-120.00" cy="-9.38" r="4.51" fill="#c9a6ff"/>
<circle cx="-108.00" cy="-12.48" r="4.51" fill="#c9a6ff"/>
<circle cx="-96.00" cy="-16.20" r="4.51" fill="#c9a6ff"/>
<circle cx="-84.00" cy="-20.60" r="4.51" fill="#c9a6ff"/>
<circle cx="-72.00" cy="-25.73" r="4.51" fill="#c9a6ff"/>
<circle cx="-60.00" cy="-31.64" r="4.51" fill="#c9a6ff"/>
<circle cx="-48.00" cy="-38.40" r="4.51" fill="#c9a6ff"/>
<circle cx="-36.00" cy="-46.06" r="4.51" fill="#c9a6ff"/>
<circle cx="-24.00" cy="-54.67" r="4.51" fill="#c9a6ff"/>
<circle cx="-12.00" cy="-64.30" r="4.51" fill="#c9a6ff"/>
<circle cx="0.00" cy="-75.00" r="4.51" fill="#c9a6ff"/>
<circle cx="12.00" cy="-85.70" r="4.51" fill="#c9a6ff"/>
<circle cx="24.00" cy="-95.33" r="4.51" fill="#c9a6ff"/>
<circle cx="36.00" cy="-103.94" r="4.51" fill="#c9a6ff"/>
<circle cx="48.00" cy="-111.60" r="4.51" fill="#c9a6ff"/>
<circle cx="60.00" cy="-118.36" r="4.51" fill="#c9a6ff"/>
<circle cx="72.00" cy="-124.27" r="4.51" fill="#c9a6ff"/>
<circle cx="84.00" cy="-129.40" r="4.51" fill="#c9a6ff"/>
<circle cx="96.00" cy="-133.80" r="4.51" fill="#c9a6ff"/>
<circle cx="108.00" cy="-137.52" r="4.51" fill="#c9a6ff"/>
<circle cx="120.00" cy="-140.62" r="4.51" fill="#c9a6ff"/>
<circle cx="132.00" cy="-143.17" r="4.51" fill="#c9a6ff"/>
<circle cx="144.00" cy="-145.20" r="4.51" fill="#c9a6ff"/>
<circle cx="156.00" cy="-146.78" r="4.51" fill="#c9a6ff"/>
<circle cx="168.00" cy="-147.98" r="4.51" fill="#c9a6ff"/>
<circle cx="180.00" cy="-148.83" r="4.51" fill="#c9a6ff"/>
<circle cx="192.00" cy="-149.40" r="4.51" fill="#c9a6ff"/>
<circle cx="204.00" cy="-149.75" r="4.51" fill="#c9a6ff"/>
<circle cx="216.00" cy="-149.93" r="4.51" fill="#c9a6ff"/>
<circle cx="228.00" cy="-149.99" r="4.51" fill="#c9a6ff"/>
<circle cx="240.00" cy="-150.00" r="4.51" fill="#c9a6ff"/>
</svg>
