<svg xmlns="http://www.w3.org/2000/svg" viewBox="-268.80 -73.40 537.60 165.18" width="340" height="104" role="img">
<rect x="-268.80" y="-73.40" width="537.60" height="165.18" rx="6.35" fill="#141317"/>
<circle cx="-240.00" cy="-27.92" r="4.03" fill="#c9a6ff"/>
<circle cx="-228.00" cy="-5.31" r="4.03" fill="#c9a6ff"/>
<circle cx="-216.00" cy="-6.26" r="4.03" fill="#c9a6ff"/>
<circle cx="-204.00" cy="-5.11" r="4.03" fill="#c9a6ff"/>
<circle cx="-192.00" cy="-23.76" r="4.03" fill="#c9a6ff"/>
<circle cx="-180.00" cy="21.29" r="4.03" fill="#c9a6ff"/>
<circle cx="-168.00" cy="-34.25" r="4.03" fill="#c9a6ff"/>
<circle cx="-156.00" cy="16.32" r="4.03" fill="#c9a6ff"/>
<circle cx="-144.00" cy="-12.99" r="4.03" fill="#c9a6ff"/>
<circle cx="-132.00" cy="48.75" r="4.03" fill="#c9a6ff"/>
<circle cx="-120.00" cy="47.24" r="4.03" fill="#c9a6ff"/>
<circle cx="-108.00" cy="2.69" r="4.03" fill="#c9a6ff"/>
<circle cx="-96.00" cy="5.71" r="4.03" fill="#c9a6ff"/>
<circle cx="-84.00" cy="-4.41" r="4.03" fill="#c9a6ff"/>
<circle cx="-72.00" cy="-19.16" r="4.03" fill="#c9a6ff"/>
<circle cx="-60.00" cy="16.95" r="4.03" fill="#c9a6ff"/>
<circle cx="-48.00" cy="-11.26" r="4.03" fill="#c9a6ff"/>
<circle cx="-36.00" cy="6.77" r="4.03" fill="#c9a6ff"/>
<circle cx="-24.00" cy="-8.82" r="4.03" fill="#c9a6ff"/>
<circle cx="-12.00" cy="-12.25" r="4.03" fill="#c9a6ff"/>
<circle cx="0.00" cy="4.61" r="4.03" fill="#c9a6ff"/>
<circle cx="12.00" cy="-9.80" r="4.03" fill="#c9a6ff"/>
<circle cx="24.00" cy="5.20" r="4.03" fill="#c9a6ff"/>
<circle cx="36.00" cy="-14.23" r="4.03" fill="#c9a6ff"/>
<circle cx="48.00" cy="37.85" r="4.03" fill="#c9a6ff"/>
<circle cx="60.00" cy="-3.31" r="4.03" fill="#c9a6ff"/>
<circle cx="72.00" cy="-18.84" r="4.03" fill="#c9a6ff"/>
<circle cx="84.00" cy="-24.52" r="4.03" fill="#c9a6ff"/>
<circle cx="96.00" cy="-1.58" r="4.03" fill="#c9a6ff"/>
<circle cx="108.00" cy="10.84" r="4.03" fill="#c9a6ff"/>
<circle cx="120.00" cy="-4.37" r="4.03" fill="#c9a6ff"/>
<circle cx="132.00" cy="-5.31" r="4.03" fill="#c9a6ff"/>
<circle cx="144.00" cy="-15.84" r="4.03" fill="#c9a6ff"/>
<circle cx="156.00" cy="-44.60" r="4.03" fill="#c9a6ff"/>
<circle cx="168.00" cy="-34.71" r="4.03" fill="#c9a6ff"/>
<circle cx="180.00" cy="-35.40" r="4.03" fill="#c9a6ff"/>
<circle cx="192.00" cy="-8.19" r="4.03" fill="#c9a6ff"/>
<circle cx="204.00" cy="-10.59" r="4.03" fill="#c9a6ff"/>
<circle cx="216.00" cy="10.03" r="4.03" fill="#c9a6ff"/>
<circle cx="228.00" cy="28.81" r="4.03" fill="#c9a6ff"/>
<circle cx="240.00" cy="62.98" r="4.03" fill="#c9a6ff"/>
</svg>
